<svg id="Capa_1" data-name="Capa 1" xmlns="http://www.w3.org/2000/svg" xmlns:xlink="http://www.w3.org/1999/xlink" viewBox="0 0 408 365.21"><defs><style>.cls-1{fill:#f2f8fe;}.cls-2{fill:#d4ebfa;}.cls-3{fill:#34d6b0;}.cls-4{fill:#b7e2ff;}.cls-5{fill:#1c8bff;}.cls-6{fill:#49c1f0;}.cls-7{fill:#396daa;}.cls-8{fill:#5692cd;}.cls-9{fill:url(#_ÂÁ_Ï_ÌÌ_È_ËÂÌÚ_242);}.cls-10{fill:#e9e9e9;}.cls-11{fill:gray;}.cls-12{fill:#f7bfaf;}.cls-13{fill:#fff;}.cls-14{fill:#ea9c91;}.cls-15{fill:#009cc2;}.cls-16{fill:#1b3e77;}.cls-17{fill:#274f89;}.cls-18{fill:#1c8aff;}.cls-19{fill:#69bbff;}.cls-20{fill:#7ab6ff;}.cls-21{fill:#1b8bff;}.cls-22{fill:#1b8cff;}.cls-23{fill:#35dab3;}.cls-24{fill:#edecec;}.cls-25{fill:#acebe2;}.cls-26{fill:#eeeef3;}.cls-27{fill:#34d4ae;}</style><radialGradient id="_ÂÁ_Ï_ÌÌ_È_ËÂÌÚ_242" cx="219.32" cy="133.24" r="48.08" gradientUnits="userSpaceOnUse"><stop offset="0" stop-color="#37bce4"/><stop offset="0.1" stop-color="#32b2de"/><stop offset="0.27" stop-color="#2399ce"/><stop offset="0.45" stop-color="#1077b8"/><stop offset="1" stop-color="#242f5d"/></radialGradient></defs><title>name3</title><path class="cls-1" d="M39,322c38.85,31.12,88.72,41.75,186.26,22.33,111.85-28.89,147.53-121.87,157.32-148.75S440.69,91,265.5,72.63C61.74,52.68,54.16,88.1,30.16,115.89S.41,291.06,39,322Z"/><path class="cls-2" d="M245.91,286.29l-.52-.89,15.34-9a6,6,0,0,1,6.13,0L279.54,284l-.53.88-12.68-7.57a5,5,0,0,0-5.08,0Z"/><path class="cls-2" d="M291.55,283.8l-.52-.88,39.79-23.52a1.24,1.24,0,0,0,0-2.13l-13.21-8.11.54-.88,13.21,8.11a2.28,2.28,0,0,1,1.09,1.95,2.25,2.25,0,0,1-1.11,2Z"/><path class="cls-2" d="M248.22,251.41l-.52-.89,38.79-22.33a1.28,1.28,0,0,0,0-2.22L266,214.18a9.1,9.1,0,0,1-4.56-7.87V138.77a8.44,8.44,0,0,1,3.7-7l3.08-2.09.58.85-3.09,2.09a7.41,7.41,0,0,0-3.24,6.13v67.54a8.08,8.08,0,0,0,4,7L287,225.08a2.27,2.27,0,0,1,1.15,2,2.3,2.3,0,0,1-1.15,2Z"/><path class="cls-3" d="M245.65,272.74a1,1,0,0,1-.52-1.91l15.34-9a6.55,6.55,0,0,1,6.65,0l12.68,7.58a1,1,0,0,1,.36,1.4,1,1,0,0,1-1.41.36l-12.68-7.57a4.44,4.44,0,0,0-4.56,0l-15.34,9A1.1,1.1,0,0,1,245.65,272.74Z"/><path class="cls-2" d="M223.89,320.82l-85.35-49.28c-3-1.71-2.6-4.7.83-6.68h0c3.43-2,8.61-2.19,11.58-.48l85.35,49.28c3,1.71,2.6,4.7-.83,6.68h0C232,322.32,226.86,322.54,223.89,320.82Z"/><path class="cls-4" d="M305.53,190.43a17.29,17.29,0,0,0-2-1h0l-3.92-1.74.29.69a25.12,25.12,0,0,0-9.19-.1l.18-.76-4.61,2h0a17.15,17.15,0,0,0-1.72.84c-5.79,3.34-5.79,8.76,0,12.1s15.17,3.34,20.95,0S311.32,193.77,305.53,190.43Z"/><path class="cls-4" d="M300,193.59a10.89,10.89,0,0,1-9.82,0c-2.71-1.57-2.71-4.11,0-5.67a10.83,10.83,0,0,1,9.82,0C302.68,189.48,302.68,192,300,193.59Z"/><path class="cls-5" d="M295.63,191.82h0a2.35,2.35,0,0,1-2.44-2.28l-1-29.82,4.72-.16,1,29.82A2.34,2.34,0,0,1,295.63,191.82Z"/><path class="cls-5" d="M296.22,160.67a3.77,3.77,0,0,1-3.4.11,1,1,0,0,1-.07-2,3.76,3.76,0,0,1,3.41-.12A1,1,0,0,1,296.22,160.67Z"/><path class="cls-6" d="M295.05,160.66h0a1.92,1.92,0,0,1-1.91-1.91V130.7H297v28.05A1.92,1.92,0,0,1,295.05,160.66Z"/><path class="cls-7" d="M322.57,145.39V144.3l1.55-.23,1.74-1.3a1.16,1.16,0,0,1,1.14,0l1.28.74,1.27-.18v1.11h0a.41.41,0,0,1-.29.33l-4.05,1.81a1.3,1.3,0,0,1-1.06,0l-1.35-.78a.39.39,0,0,1-.22-.33Z"/><path class="cls-8" d="M322.74,144l3.12-2.34a1.16,1.16,0,0,1,1.14,0l2.33,1.35c.33.18.29.5-.07.66l-4.05,1.8a1.26,1.26,0,0,1-1.06,0l-1.35-.78C322.52,144.45,322.49,144.19,322.74,144Z"/><path class="cls-2" d="M317.47,149.3a2.49,2.49,0,0,0,1.25-.31l4.85-2.8a.56.56,0,0,0-.56-1l-4.85,2.8a1.59,1.59,0,0,1-1.38,0l-8.06-4.67a.57.57,0,0,0-.77.21.56.56,0,0,0,.21.76l8.06,4.67A2.49,2.49,0,0,0,317.47,149.3Z"/><polygon class="cls-9" points="270.83 139.04 278.62 134.51 274.25 132.54 270.52 135.19 270.83 139.04"/><path class="cls-8" d="M320.85,132.32a11.22,11.22,0,0,1-1.31-.82l-16.6-12.16c-3-2.2-6.08-2.77-8.47-1.56l-.17.11h0l-22.93,13.3,2.06.68,8,3.64,10.92,7.75,8.62,4.57.39.09c2-1.69,4.26-3.15,5.5-5.62,2.13-3.73,8.07-4.8,11.57-7.83a11.52,11.52,0,0,0,1.05.62A7.8,7.8,0,0,0,320.85,132.32Z"/><path class="cls-7" d="M328.13,126.83a1.53,1.53,0,0,0-.94.33h0l-22.43,13,.82,3.35.84-.4c-1.28,2-3.25,3.32-5,4.83l2.54.53,22-12.78.3-.13A5.81,5.81,0,0,0,327,135l0,0h0c1.67-1.29,2.62-3.54,2.62-6.34v-.27A1.54,1.54,0,0,0,328.13,126.83Z"/><path class="cls-10" d="M297.41,117.16a9.52,9.52,0,0,1,4.4,1.43A9.52,9.52,0,0,0,297.41,117.16Z"/><path class="cls-8" d="M307.62,141.19v-.27a1.54,1.54,0,0,0-3.08,0v.27c0,2.06-.65,3.57-1.8,4.15s-3.25.17-5.25-1.29l-16.6-12.16c-2.55-1.88-5.17-2.55-7.36-2l13.71-8-15.89,9.22,2.06.68,8,3.64,10.92,7.75,8.62,4.57.39.09c2-1.7,4.26-3.15,5.5-5.62a6.31,6.31,0,0,1,.75-1Z"/><path class="cls-6" d="M301,149.21A10,10,0,0,1,295.2,147l-16.6-12.16c-2-1.46-4-1.94-5.25-1.29s-1.8,2.09-1.8,4.15a1.54,1.54,0,1,1-3.08,0c0-3.26,1.27-5.78,3.48-6.9,2.39-1.21,5.47-.64,8.47,1.55L297,144.55c2,1.46,4,1.94,5.25,1.29s1.8-2.1,1.8-4.16v-.26a1.54,1.54,0,1,1,3.08,0v.26c0,3.27-1.27,5.78-3.49,6.91A6,6,0,0,1,301,149.21Z"/><path d="M287.93,176.4s-3.13-1.57-5.05.77-4.66,7.89-4.75,11.64,3,3.49,4.78,2.6,7.11-8.56,7.43-10.07a5.21,5.21,0,0,0-.89-3.93C288.94,177,287.93,176.4,287.93,176.4Z"/><path class="cls-8" d="M288.61,175.65l.15,3.24a1.83,1.83,0,0,1-.92,1.68,3.6,3.6,0,0,1-2.41.38c-2.35-.38-2.57-1-2.73-4.29S288.61,175.65,288.61,175.65Z"/><path d="M276.49,170.18s-3.13-1.58-5.05.77-4.66,7.89-4.75,11.63,3,3.49,4.78,2.61,7.1-8.57,7.42-10.07a5.27,5.27,0,0,0-.88-3.94C277.5,170.78,276.49,170.18,276.49,170.18Z"/><path class="cls-8" d="M277.17,169.42l.14,3.24a1.84,1.84,0,0,1-.91,1.69,3.62,3.62,0,0,1-2.41.37c-2.36-.38-2.57-1.05-2.74-4.29S277.17,169.42,277.17,169.42Z"/><path class="cls-11" d="M305.65,110.38c-.6-15.07-16.34,1.87-16.34,1.87l-10.75,10.09-9.69,10.2a9.35,9.35,0,0,0-2.52,7.46l3.22,29.27a2.86,2.86,0,0,0,2.82,2.55,9.39,9.39,0,0,0,1.42-.09,3.57,3.57,0,0,0,3.25-3.72l-.12-27.31,20.16-11.57S306.26,125.45,305.65,110.38Z"/><path class="cls-11" d="M316.51,115.7c-.93-15.06-16.31,2.21-16.31,2.21l-10.52,10.32-9.48,10.41a9.34,9.34,0,0,0-2.35,7.51l3.83,29.19a2.86,2.86,0,0,0,2.88,2.49,9.81,9.81,0,0,0,1.42-.12,3.56,3.56,0,0,0,3.16-3.79l-.7-27.3,19.91-12S317.43,130.75,316.51,115.7Z"/><path class="cls-4" d="M307.41,67.37c11.66,4.84,11.42,11.73,11.42,11.73s-2.28,25.26-1.5,42.14c.32,7-37.48,7.59-31.84-11.23,6.65-22.19,4.15-40.15,7.27-42.86S304.39,66.12,307.41,67.37Z"/><ellipse class="cls-12" cx="305.34" cy="71.98" rx="4.43" ry="6.01" transform="translate(159.46 349.71) rotate(-75.56)"/><path class="cls-13" d="M306.22,77.08a8.7,8.7,0,0,1-2.13-.27,7.73,7.73,0,0,1-4.08-2.5,4.47,4.47,0,0,1-1-4c.69-2.66,4.1-4.08,7.61-3.18a7.8,7.8,0,0,1,4.09,2.5,4.22,4.22,0,0,1-1.79,6.93A7.07,7.07,0,0,1,306.22,77.08ZM304.44,68c-2.16,0-4,1-4.39,2.62a3.37,3.37,0,0,0,.82,3,7.06,7.06,0,0,0,7.59,2,3.4,3.4,0,0,0,2.16-2.21h0a3.35,3.35,0,0,0-.82-3,6.62,6.62,0,0,0-3.5-2.13A7.6,7.6,0,0,0,304.44,68Z"/><path class="cls-12" d="M302.73,66.85a28.87,28.87,0,0,1-.1,4.16c-.06,1.16,4,2.25,5.06,1.19s.63-2.14.88-6.09S302.73,66.85,302.73,66.85Z"/><path class="cls-14" d="M308.57,66.11s-1,3.66-5.94,5.07l.08-3.33Z"/><path class="cls-12" d="M311.7,56.8a9,9,0,1,1-10.94-6.45A9,9,0,0,1,311.7,56.8Z"/><path class="cls-14" d="M305.07,59.37s-4.94,2.12-8.36,2.14S294,58.67,294,58.67L304.2,57.2Z"/><path d="M295.69,59.93s4.3-1.83,8.08-1.07a4,4,0,0,1,2.28,1.36,1.34,1.34,0,0,0,.69.5c.67.15,1.77-2.63,3.07-2.69s2.17.86,1.1,2.57-.71,3.62-.21,3.89,5.69-3.71,1.1-12.81-16.26-4.2-18.08-2.36c0,0-1.91,1.67-3.46.18C290.26,49.5,288.51,62.56,295.69,59.93Z"/><path class="cls-12" d="M312.29,97.56v6.82a2.81,2.81,0,0,1-.9,2.06l-14,12.79,1.59,2.43,18.53-13.43a3.77,3.77,0,0,0,1.53-2.65l1.25-11.91Z"/><path class="cls-4" d="M317.85,75.68s4.25,6.4,5.84,23.25c0,0-7.27,2.35-11.4,1S317.85,75.68,317.85,75.68Z"/><path class="cls-15" d="M311.52,83.78s-1.67,8.91-1.76,13.1a2.66,2.66,0,0,0,1.76,2.58h0Z"/><path class="cls-16" d="M307.88,128.1l-3.1-.4-20-11.56a2.79,2.79,0,0,0-2.51.11l-14.17,8.18-1.88-.25v1.87h0a.75.75,0,0,0,.43.66l22.68,13.09a2.77,2.77,0,0,0,2.5-.11l15.45-8.91a1,1,0,0,0,.61-.84h0Z"/><path class="cls-7" d="M292.84,120.8l-1.42-.82H275.79l-7.7,4.45-1.88-.25v1.87h0a.75.75,0,0,0,.43.66l22.68,13.09a2.41,2.41,0,0,0,1.29.24Z"/><path class="cls-8" d="M267,124.29l-.83-.11v1.87h0a.75.75,0,0,0,.43.66l.4.23Z"/><path class="cls-17" d="M289.55,139.9a2.93,2.93,0,0,0,2.13-.13V136.6h-2.13Z"/><path class="cls-13" d="M289.32,137.93l-22.68-13.09c-.64-.37-.56-1,.18-1.44l15.44-8.92a2.82,2.82,0,0,1,2.51-.1l22.67,13.09c.65.37.57,1-.17,1.45l-15.45,8.91A2.77,2.77,0,0,1,289.32,137.93Z"/><path class="cls-2" d="M288.94,136l-18.86-10.89c-.53-.31-.47-.84.15-1.2l8.28-4.65a2.29,2.29,0,0,1,2.08-.09L299.44,130c.54.31.47.84-.15,1.2L291,135.86A2.29,2.29,0,0,1,288.94,136Z"/><path class="cls-12" d="M283.14,114.05l-.23,1.57a11.5,11.5,0,0,0,.1,4l.28,1.38a1.93,1.93,0,0,0,1.55,1.52h0a1.08,1.08,0,0,0,1.26-.93l.37-3.35s.86,1.13,1.27,1.13-.46-3.35-1.4-5.25S283.14,114.05,283.14,114.05Z"/><path class="cls-12" d="M290.83,89.19,288.4,94a9.34,9.34,0,0,0-1,3.66l-1.06,16.47-3.2-.08-1.45-18.5a6.55,6.55,0,0,1,.08-1.71l1.66-9.38Z"/><path class="cls-18" d="M288.55,139.19l-1.9-2.48-20-11.58a2.75,2.75,0,0,1-1.16-2.22V106.54l-1.15-1.5,1.08-.63h0a.72.72,0,0,1,.78,0l22.66,13.12a2.79,2.79,0,0,1,1.16,2.22l0,17.83a1,1,0,0,1-.42,1h0Z"/><path class="cls-18" d="M274.72,129.8,273.3,129l-7.79-13.54v-8.9l-1.15-1.5,1.08-.63h0a.72.72,0,0,1,.78,0l22.66,13.12a2.44,2.44,0,0,1,.86,1Z"/><path class="cls-18" d="M264.87,105.7l-.51-.66,1.08-.63h0a.72.72,0,0,1,.78,0l.4.23Z"/><path class="cls-18" d="M289.1,117.73a2.89,2.89,0,0,1,.94,1.9l-2.21,1.28-1.06-1.84Z"/><path class="cls-18" d="M287.81,118.21l-22.66-13.13c-.64-.37-1.16,0-1.16.88l0,17.83a2.78,2.78,0,0,0,1.16,2.22l22.66,13.12c.64.37,1.16,0,1.16-.88l0-17.82A2.78,2.78,0,0,0,287.81,118.21Z"/><path class="cls-12" d="M299,121.66l-.36.76a5.11,5.11,0,0,1-1.89,2.1l-2.25,1.38a2.24,2.24,0,0,1-2.3.06l-.08,0a1.36,1.36,0,0,1-.19-2.08l2.35-2.42s-1.32,1-1.69.61,1.28-1.76,2.47-1.81a4.72,4.72,0,0,0,2.35-1Z"/><path class="cls-4" d="M293,67.11s-8.62,9.39-12.1,18a17.59,17.59,0,0,0,10.16,7.4C298.27,94.59,293,67.11,293,67.11Z"/><path class="cls-15" d="M289.43,91.94l1.4-13.5-3.29,12.65A17.36,17.36,0,0,0,289.43,91.94Z"/><path class="cls-13" d="M299.45,65.22l-2.32-.64a5.65,5.65,0,0,0,2.72,2.19c1.62.44,1.87-.93,1.87-.93Z"/><path class="cls-19" d="M239.35,59.75l-92-53.11c-3-1.74-5.77-1.78-7.84-.47v0L128,12.83l7.74,1.44c0,.4,0,.8,0,1.22V232.4c0,8.62,5.24,18.62,11.7,22.35l90.68,52.36c-.83,2.59-2.59,8-2.59,8l11.29-6.54h0c2.61-1.35,4.28-4.73,4.28-9.59V82.1C251,73.49,245.81,63.48,239.35,59.75Z"/><polygon class="cls-2" points="325.8 245.97 311.99 237.99 298.17 245.97 311.99 253.94 325.8 245.97"/><polygon class="cls-20" points="311.99 246.55 311.99 237.56 328.49 228.03 328.49 237.02 311.99 246.55"/><polygon class="cls-5" points="311.99 237.56 295.48 228.03 295.48 237.02 311.99 246.55 311.99 237.56"/><polygon class="cls-4" points="328.49 228.03 311.99 218.5 295.48 228.03 311.99 237.56 328.49 228.03"/><path class="cls-13" d="M271.24,124.27c0,1.42-1,2-2.22,1.28a4.88,4.88,0,0,1-2.21-3.83c0-1.41,1-2,2.21-1.28A4.89,4.89,0,0,1,271.24,124.27Z"/><path class="cls-3" d="M248,245.08a1,1,0,0,1-.51-1.92l38.78-22.33a.77.77,0,0,0,0-1.33L265.7,207.71a9.6,9.6,0,0,1-4.81-8.31V131.86a8.92,8.92,0,0,1,3.92-7.4l3.08-2.1a1,1,0,1,1,1.15,1.7l-3.08,2.1a6.87,6.87,0,0,0-3,5.7V199.4a7.54,7.54,0,0,0,3.79,6.53l20.52,11.79a2.81,2.81,0,0,1,0,4.89l-38.78,22.33A1,1,0,0,1,248,245.08Z"/><path class="cls-21" d="M135.68,232.4c0,8.62,5.24,18.62,11.7,22.35l90.68,52.36c-.83,2.59-2.59,8-2.59,8l11.29-6.54h0c2.61-1.35,4.28-4.73,4.28-9.59V82.1a29.08,29.08,0,0,0-3.71-13.52L135.68,133Z"/><path class="cls-21" d="M227.75,314.58l-92-53.11c-6.46-3.73-11.7-13.73-11.7-22.34V22.21c0-8.61,5.24-12.57,11.7-8.84l92,53.1c6.46,3.73,11.69,13.74,11.69,22.35V305.74C239.44,314.35,234.21,318.31,227.75,314.58Z"/><path class="cls-13" d="M226,307.4l-88.37-51c-4.8-2.78-8.69-10.21-8.69-16.61V25.92c0-6.4,3.89-9.34,8.69-6.57l88.37,51c4.81,2.77,8.7,10.21,8.7,16.61V300.83C234.73,307.23,230.84,310.17,226,307.4Z"/><ellipse class="cls-2" cx="113.45" cy="303.42" rx="27.48" ry="15.86"/><path d="M96.61,295a5.26,5.26,0,0,0-3,5.25,9.18,9.18,0,0,0,.43,2.56c.61,1.28,2.61,3,5.79,1.78s10.27-7.91,10.53-12.26C110.89,284.25,101.65,292.86,96.61,295Z"/><path d="M115.3,308.86s-.54,4.69-.13,5.53,2.71,2.55,6,2,12.52-4.24,14.32-10.54c2.8-9.77-18.14,1.58-18.14,1.58Z"/><path class="cls-22" d="M124.54,233.87l.73,72.76a5.12,5.12,0,0,1-4,5.05l-.89.11A4.51,4.51,0,0,1,116.1,310a5.36,5.36,0,0,1-1-2.94L114.2,276l-4.64-27.77-6.42,49.15a4.26,4.26,0,0,1-1.76,3.24,4.9,4.9,0,0,1-2.93.79,5.32,5.32,0,0,1-3.88-1.91,3.85,3.85,0,0,1-.93-2.63l2.54-29.58.95-37.72Z"/><path class="cls-12" d="M115.12,168.75,114,175.38a3,3,0,0,0,2.48,2.89c2.53.62,3.31-1,3.31-1l1.14-7.46Z"/><path class="cls-12" d="M129,165.12c-1.8,5.68-7.34,9-12.4,7.36s-7.69-7.53-5.9-13.21,7.35-9,12.4-7.36S130.83,159.44,129,165.12Z"/><path class="cls-23" d="M115.42,175.5c-.18-.07-10.72-6.86-14.61.24-6.36,11.58-1.71,24.86-4,53.69-.38,4.83,6.49,7.77,9.74,9.62a19.31,19.31,0,0,0,9.46,2.69c3.29,0,9.61-2.9,9.38-7.2-1.06-19.81.7-36.5,2.31-52.7C127.72,181.84,125.7,179.66,115.42,175.5Z"/><path class="cls-22" d="M109.56,248.23l-6.42,49.15a4.26,4.26,0,0,1-1.76,3.24,5.67,5.67,0,0,1-.55.31c1.33-1,5.22-42.25,5.94-46.84S109.56,248.23,109.56,248.23Z"/><polygon class="cls-12" points="149.6 181.5 158.42 163.98 155.65 162.23 146.51 175.58 149.6 181.5"/><path class="cls-3" d="M127.72,181.84s9.87,3.89,18.35-6.81a1.63,1.63,0,0,1,2.73.18c.76,1.75,1.72,4.4.56,6.89-5.13,11-22.62,10.62-26.83,16.78S127.72,181.84,127.72,181.84Z"/><path class="cls-3" d="M121.29,196.68c-.86,3.91,4.31,33.42-1.44,44.21,2.87-1.16,5.71-3.44,5.56-6.35a270.11,270.11,0,0,1,1-38.67c4.91-2.49,12.59-4,18-8C138.58,190.06,122.05,193.19,121.29,196.68Z"/><path class="cls-13" d="M111.63,173.63l1.46-1.51s2.41,2.46,4.34,2.89a22.87,22.87,0,0,0,3.47.72l.94,2.59S114.17,177.77,111.63,173.63Z"/><path d="M122.16,165.29a1.24,1.24,0,0,0,1-.52c.4-.58.15-3.24,1.38-3.68,1.93-.69,6.5,1.72,7-5.23.25-3.62-1.51-4.58-1.5-6.56,0,0,.15,1-9.14.38s-12.33,7.64-12.55,11.57,1.69,10.4,8,11.29c1,.15,5.48-3.41,5.37-3.88s-1.79-.44-1.55-1.8A1.75,1.75,0,0,1,122.16,165.29Z"/><path class="cls-24" d="M173.19,90.69l-28.1-16.22a5.42,5.42,0,0,1-2.26-4.32V49.26c0-1.67,1-2.43,2.26-1.71l28.1,16.22a5.4,5.4,0,0,1,2.26,4.32V89C175.45,90.65,174.44,91.41,173.19,90.69Z"/><path class="cls-15" d="M170.41,57.55l-28.1-16.23a1.43,1.43,0,0,0-1.45-.11v0l-2.73,1.57,1.92.7V63.93a5.43,5.43,0,0,0,2.26,4.32l26.86,15.5v2.4l2.75-1.58h0a2,2,0,0,0,.76-1.8V61.87A5.4,5.4,0,0,0,170.41,57.55Z"/><path class="cls-25" d="M167.63,86.07l-28.1-16.22a5.46,5.46,0,0,1-2.26-4.32V44.63c0-1.66,1-2.43,2.26-1.71l28.1,16.23a5.4,5.4,0,0,1,2.26,4.32V84.36C169.89,86,168.88,86.79,167.63,86.07Z"/><path class="cls-13" d="M167.42,58.63,138.73,43.48a1.35,1.35,0,0,0-1.75.18,1.81,1.81,0,0,1,1,.22L166.68,59a5.41,5.41,0,0,1,2.43,4.23l.79,20.87a2.31,2.31,0,0,1-.45,1.62c.74-.09,1.23-.83,1.19-2l-.8-20.88A5.37,5.37,0,0,0,167.42,58.63Z"/><path class="cls-13" d="M149,62.65c0,1.2-.84,1.69-1.89,1.09a4.19,4.19,0,0,1-1.9-3.28c0-1.21.85-1.7,1.9-1.1A4.19,4.19,0,0,1,149,62.65Z"/><path class="cls-13" d="M154.73,66c0,1.21-.85,1.7-1.9,1.1a4.19,4.19,0,0,1-1.89-3.29c0-1.21.84-1.7,1.89-1.09A4.17,4.17,0,0,1,154.73,66Z"/><path class="cls-13" d="M160.47,69.28c0,1.21-.85,1.7-1.89,1.09a4.17,4.17,0,0,1-1.9-3.28c0-1.21.85-1.7,1.9-1.1A4.22,4.22,0,0,1,160.47,69.28Z"/><path class="cls-24" d="M225.78,191.59l-81.43-46.44a5.42,5.42,0,0,1-2.26-4.32L136.75,92c0-1.67,1-2.43,2.26-1.71l86.77,48.22a5.42,5.42,0,0,1,2.27,4.32v47C228.05,191.55,227,192.32,225.78,191.59Z"/><path class="cls-11" d="M223,132.32,141.57,85.87a1.44,1.44,0,0,0-1.46-.11v0l-2.73,1.57,1.92.7,53.33,76.82a5.44,5.44,0,0,0,2.26,4.32l26.86,15.5v2.41l2.76-1.59h0a2,2,0,0,0,.76-1.8v-47A5.42,5.42,0,0,0,223,132.32Z"/><path class="cls-26" d="M220.23,187l-81.44-46.45a5.4,5.4,0,0,1-2.26-4.32v-47c0-1.66,1-2.43,2.26-1.71l81.44,46.45a5.42,5.42,0,0,1,2.26,4.32v47C222.49,186.93,221.48,187.69,220.23,187Z"/><path class="cls-24" d="M224,264l-28.1-16.22a5.4,5.4,0,0,1-2.26-4.32v-47c0-1.67,1-2.43,2.26-1.71L224,211a5.42,5.42,0,0,1,2.26,4.32v47C226.27,264,225.26,264.74,224,264Z"/><path class="cls-3" d="M221.23,204.74l-28.1-16.22a1.45,1.45,0,0,0-1.46-.12v0L189,190l1.92.7v46.59a5.42,5.42,0,0,0,2.26,4.32L220,257.07v2.4l2.76-1.58h0a2,2,0,0,0,.77-1.8v-47A5.43,5.43,0,0,0,221.23,204.74Z"/><path class="cls-3" d="M218.45,259.39l-28.1-16.22a5.42,5.42,0,0,1-2.26-4.32v-47c0-1.67,1-2.43,2.26-1.71l28.1,16.22a5.4,5.4,0,0,1,2.26,4.32v47C220.71,259.35,219.7,260.11,218.45,259.39Z"/><path class="cls-13" d="M218.45,206.34l-28.1-16.22a1.34,1.34,0,0,0-1.75.11,1.74,1.74,0,0,1,1,.26l28.1,16.22A5.42,5.42,0,0,1,220,211v47a2.29,2.29,0,0,1-.51,1.59c.74-.06,1.26-.77,1.26-2v-47A5.4,5.4,0,0,0,218.45,206.34Z"/><path class="cls-13" d="M208.5,212.71c0,2.62-1.84,3.68-4.1,2.37a9.08,9.08,0,0,1-4.1-7.1c0-2.61,1.84-3.67,4.1-2.37A9.08,9.08,0,0,1,208.5,212.71Z"/><path class="cls-13" d="M210.21,220.1s0-.08,0-.12c-.17-1.1-1.22-2.07-1.9-1.82a4.69,4.69,0,0,1-3.89-.66,12.22,12.22,0,0,1-3.89-3.83c-.68-1-1.73-1.28-1.9-.38,0,0,0,.07,0,.1l-1.94,12.35,15.5,8.95Z"/><polygon class="cls-13" points="213.25 244.09 194.43 233.22 194.43 231.86 213.25 242.73 213.25 244.09"/><polygon class="cls-13" points="207.57 246.74 194.43 239.15 194.43 237.79 207.57 245.38 207.57 246.74"/><polygon class="cls-13" points="205.79 242.75 194.43 236.19 194.43 234.83 205.79 241.39 205.79 242.75"/><polygon class="cls-13" points="213.25 247.05 207.57 243.77 207.57 242.41 213.25 245.7 213.25 247.05"/><polygon class="cls-13" points="155.75 199.55 142.32 191.8 142.32 190.54 155.75 198.3 155.75 199.55"/><polygon class="cls-13" points="164.07 204.35 158.34 201.04 158.34 199.79 164.07 203.1 164.07 204.35"/><polygon class="cls-13" points="156.21 202.55 150.48 199.24 150.48 197.98 156.21 201.29 156.21 202.55"/><polygon class="cls-13" points="168.63 209.72 158.34 203.77 158.34 202.52 168.63 208.46 168.63 209.72"/><polygon class="cls-13" points="175.68 216.51 160.46 207.72 160.46 206.47 175.68 215.26 175.68 216.51"/><polygon class="cls-13" points="172.28 209.09 166.54 205.78 166.54 204.53 172.28 207.84 172.28 209.09"/><polygon class="cls-13" points="148.06 197.84 142.32 194.53 142.32 193.27 148.06 196.58 148.06 197.84"/><polygon class="cls-13" points="158 206.3 142.3 197.24 142.3 195.99 158 205.05 158 206.3"/><polygon class="cls-13" points="151.95 205.54 142.48 200.07 142.48 198.82 151.95 204.29 151.95 205.54"/><path class="cls-27" d="M291.29,271.63a1,1,0,0,1-.52-1.91l39.79-23.52a.72.72,0,0,0,0-1.24l-10.86-6.52a1,1,0,1,1,1.06-1.76l10.86,6.52a2.78,2.78,0,0,1,0,4.77l-39.8,23.52A1,1,0,0,1,291.29,271.63Z"/><polygon class="cls-2" points="299.07 289.65 285.26 281.67 271.45 289.65 285.26 297.62 299.07 289.65"/><polygon class="cls-20" points="285.26 290.23 285.26 281.24 301.76 271.71 301.76 280.7 285.26 290.23"/><polygon class="cls-5" points="285.26 281.24 268.76 271.71 268.76 280.7 285.26 290.23 285.26 281.24"/><polygon class="cls-4" points="301.76 271.71 285.26 262.18 268.76 271.71 285.26 281.24 301.76 271.71"/><path class="cls-12" d="M158.49,164.09l1-2a4.69,4.69,0,0,0,.52-2.26l-.13-4.34-.15-.94a1.71,1.71,0,0,0-1.77-1.45l-.61,0a2.11,2.11,0,0,0-1.82,1.2l-.55,3.33-1.14-1a.54.54,0,0,0-.75.06h0a.53.53,0,0,0,0,.66l1.62,2,.42,4.25Z"/><path class="cls-23" d="M145,117.24c0-1,0-1.81-.07-2.63l1.47.85.09,1.63,0,0c.45-.64,1.51-.92,3,0a6.78,6.78,0,0,1,3.23,5.93v5.71l-1.66-1v-5.51a4.45,4.45,0,0,0-2.12-4c-1.09-.63-1.94-.31-2.23.5a2.1,2.1,0,0,0-.11.74v5.74l-1.66-1Z"/><path class="cls-23" d="M160.55,133.19l-.13-1.28-.06,0c-.51.45-1.49.56-2.79-.2a5.46,5.46,0,0,1-2.8-4.36c0-2.31,2-2.44,5.5-.39v-.19a3.8,3.8,0,0,0-2.08-3.42,4.33,4.33,0,0,0-2.38-.66l-.38-1.36a5.4,5.4,0,0,1,3,.88,6.52,6.52,0,0,1,3.47,5.92v3.58a16.16,16.16,0,0,0,.15,2.38Zm-.24-5c-1.82-1.08-3.88-1.94-3.88-.08a3.05,3.05,0,0,0,1.57,2.57c1.19.69,1.95.33,2.21-.33a1.31,1.31,0,0,0,.1-.5Z"/><path class="cls-23" d="M164.59,128.54c0-1,0-1.81-.07-2.64l1.45.84.08,1.59,0,0c.51-.61,1.36-1,2.87-.1a5.91,5.91,0,0,1,2.59,3.41l0,0a1.76,1.76,0,0,1,1-.66,2.75,2.75,0,0,1,2,.49,6.63,6.63,0,0,1,3,5.9v5.65l-1.62-.93V136.7a4.44,4.44,0,0,0-2-4.1c-.94-.54-1.68-.23-2,.46a2.13,2.13,0,0,0-.13.79v5.93l-1.63-.94v-5.75a4.21,4.21,0,0,0-1.9-3.73c-1-.6-1.8-.17-2.06.55a1.82,1.82,0,0,0-.13.78v5.78l-1.63-.94Z"/><path class="cls-23" d="M181.27,140.69a6.07,6.07,0,0,0,3.13,5.15,6.59,6.59,0,0,0,2.53,1l.28,1.42a8,8,0,0,1-3-1.16,8.8,8.8,0,0,1-4.49-7.45c0-2.89,1.62-4.24,4.29-2.7a7.88,7.88,0,0,1,3.77,6.7c0,.36,0,.62-.05.79Zm4.87,1.56a4.79,4.79,0,0,0-2.31-4.17c-1.67-1-2.41.23-2.54,1.37Z"/><path class="cls-23" d="M189.18,148.72c0-.73.47-1,1.13-.6a2.28,2.28,0,0,1,1.12,1.9c0,.72-.44,1-1.13.6A2.3,2.3,0,0,1,189.18,148.72Z"/><path class="cls-23" d="M193.49,145.62c0-1.13,0-2.12-.08-3.05l1.45.84.06,1.92.08,0c.41-1.06,1.41-1.3,2.53-.65a2.8,2.8,0,0,1,.47.33v1.65a3.76,3.76,0,0,0-.57-.38c-1.17-.68-2-.22-2.22,1a4.14,4.14,0,0,0-.08.77v5.14l-1.64-.95Z"/><path class="cls-23" d="M199.44,153.9a8.74,8.74,0,0,0,2.19,2c1.2.7,1.77.39,1.77-.41s-.47-1.57-1.7-2.75c-1.64-1.57-2.41-3-2.41-4.13,0-1.55,1.19-2.14,3.15-1a8.88,8.88,0,0,1,2.25,1.89l-.42,1a7.17,7.17,0,0,0-1.87-1.64c-1-.56-1.53-.28-1.53.44s.55,1.47,1.74,2.63c1.58,1.56,2.4,2.86,2.4,4.3,0,1.69-1.25,2.17-3.42.91A10,10,0,0,1,199,155Z"/><path class="cls-23" d="M208.78,155.87l0,0c.23-.21.55-.44.81-.63l2.68-1.78,2,1.15-1.78,1c-1,.55-1.11,2.24-.22,4l2.49,5-2-1.17L209.63,157l-.85.51v3.63l-1.64-.95V146l1.64.94Z"/></svg>