<svg id="Capa_1" data-name="Capa 1" xmlns="http://www.w3.org/2000/svg" viewBox="0 0 425.37 371.27"><defs><style>.cls-1{fill:#f2f8fe;}.cls-2{fill:#34d6b0;}.cls-3{fill:#cae8fb;}.cls-4{fill:#1981df;}.cls-5{fill:#75b9ff;}.cls-6{fill:#1d90f7;}.cls-14,.cls-7{fill:#fff;}.cls-8{fill:#e7e7e7;}.cls-9{fill:#73b9fe;}.cls-10{fill:#1c8ef7;}.cls-11{fill:#a2e1fe;}.cls-12{fill:#146da3;}.cls-13{fill:#32d5b7;}.cls-14{stroke:#3582c4;stroke-miterlimit:10;stroke-width:0.5px;}.cls-15{fill:#1b8cff;}.cls-16{fill:#f7bfaf;}.cls-17{fill:#35dab3;}</style></defs><title>storage3</title><path class="cls-1" d="M33.91,333.27c21.6,24.74,75.33,52.25,206.74-5.13,163.23-71.27,175.47-180.85,175.47-180.85,6.45-35.2-12.4-143.24-189-139.45C20.12,12.28,4.16,216.15,8.57,250.47,11.84,275.93,12.3,308.52,33.91,333.27Z"/><path class="cls-2" d="M207,210a1.11,1.11,0,0,1-.55-2.06l23.71-13.59a.8.8,0,0,0,.42-.71.83.83,0,0,0-.42-.72l-22.06-12.66a10.34,10.34,0,0,1-5.17-8.94V98.75a9.61,9.61,0,0,1,4.21-8l1.74-1.18s8.35-5.4,10.18-6.72c2.9-2.09,8.09,2,8.09,2l4,2.66a6.14,6.14,0,0,1,1.94,1.26c.34.5-.29,1.15-.8,1.49l-1.38-.94-4.66-3.2s-3.82-3-5.84-1.49c-1.21.92-10.28,6.78-10.28,6.78l-1.75,1.18a7.43,7.43,0,0,0-3.24,6.14v72.57a8.13,8.13,0,0,0,4.06,7L231.27,191a3,3,0,0,1,0,5.26l-23.71,13.58A1.08,1.08,0,0,1,207,210Z"/><path class="cls-3" d="M33.91,287.32l-3.28-2v-111a15.45,15.45,0,0,1,8.82-10c7.47-3.39,139.7-80.08,139.7-80.08s6.31-1,7,.91c1.3,3.05,1.7,4.26,1.7,4.26L117.84,225Z"/><polygon class="cls-4" points="236.61 167.67 313.98 212.46 313.98 208.42 236.61 162.28 236.61 167.67"/><polygon class="cls-4" points="314.82 212.46 379.3 174.79 379.3 170.72 314.82 208.2 314.82 212.46"/><polyline class="cls-5" points="314.82 208.96 314.82 187.41 386.34 145.08"/><polygon class="cls-6" points="231.18 82.37 231.18 102.24 313.98 150.94 313.98 130.41 231.18 82.37"/><polygon class="cls-6" points="231.18 110.79 231.18 130.67 313.98 179.36 313.98 158.83 231.18 110.79"/><polygon class="cls-6" points="232.03 139.49 232.03 160.44 314.82 209.13 314.82 187.53 232.03 139.49"/><path class="cls-7" d="M33.91,283.05l97.94,58.37,7.46.36s139.91-80.51,144.47-83.17c5.54-3.19,0-6.45,0-6.45s-87.67-51.63-92.31-54.29a9.66,9.66,0,0,0-9.16,0L45.9,275.92Z"/><path class="cls-8" d="M55.17,286.66l47.51,26.92a9,9,0,0,0,8.82,0c4.57-2.64,121.15-70.07,126.69-73.29s0-7,0-7-41.06-24-45.7-26.69a8.82,8.82,0,0,0-8.82,0L55.17,281S50.35,283.93,55.17,286.66Z"/><polygon class="cls-8" points="163.76 292.32 184.12 304.08 193.17 304.08 227.1 284.63 227.1 278.52 207.88 266.3 199.28 266.3 163.76 287.79 163.76 292.32"/><path class="cls-8" d="M286.21,255.36l-.12,3.84-144,84.45s-6.16,2.72-10.46.45-97.73-56.78-97.73-56.78V283l97.53,57.89s5.38,2.08,8.33.4S286.21,255.36,286.21,255.36Z"/><path class="cls-9" d="M35.55,282.07V177s-.85-5.66,5.26-8.53S182.31,87.7,182.31,87.7s5.66-4,5.6,2.82,0,105,0,105Z"/><polygon class="cls-10" points="44.31 269.82 180.96 189.61 180.96 98.67 44.31 177.02 44.31 269.82"/><polygon class="cls-7" points="56.53 139.49 56.53 241.64 163.76 180.53 163.76 78.76 56.53 139.49"/><polygon class="cls-4" points="237.03 139.73 314.4 184.52 314.4 180.48 237.03 134.34 237.03 139.73"/><polygon class="cls-4" points="315.25 184.52 379.72 146.85 379.72 142.78 315.25 180.26 315.25 184.52"/><polygon class="cls-4" points="236.61 111.68 313.98 156.47 313.98 152.43 236.61 106.29 236.61 111.68"/><polygon class="cls-4" points="314.82 156.47 379.3 118.8 379.3 114.73 314.82 152.21 314.82 156.47"/><polygon class="cls-6" points="231.18 162.76 231.18 182.63 313.98 231.46 313.81 210.28 231.18 162.76"/><polygon class="cls-5" points="384.9 168.88 384.9 188.65 313.98 231.49 313.81 210.28 384.9 168.88"/><polygon class="cls-11" points="231.18 162.76 302.78 119.68 384.9 168.88 313.81 210.28 231.18 162.76"/><polygon class="cls-12" points="236.61 190.71 313.98 235.5 313.98 231.46 236.61 185.32 236.61 190.71"/><polygon class="cls-12" points="313.98 235.5 378.45 196.16 378.45 192.64 313.98 231.46 313.98 235.5"/><polygon class="cls-4" points="378.93 177.93 378.93 175.62 354.44 190.55 354.44 193.09 378.93 177.93"/><polygon class="cls-4" points="378.93 183.26 378.93 180.95 354.44 195.88 354.44 198.42 378.93 183.26"/><polygon class="cls-4" points="379.31 188.38 379.31 186.06 354.82 200.99 354.82 203.54 379.31 188.38"/><polygon class="cls-4" points="346.84 207.65 346.84 205.33 322.35 220.26 322.35 222.81 346.84 207.65"/><polygon class="cls-4" points="346.84 203.35 346.84 196.07 334.59 203.54 334.59 211.04 346.84 203.35"/><polygon class="cls-13" points="329.61 213.92 329.61 206.64 322.35 211.02 322.35 218.53 329.61 213.92"/><polygon class="cls-6" points="231.18 134.43 231.18 154.3 313.98 203.13 313.81 181.96 231.18 134.43"/><polygon class="cls-5" points="384.9 140.56 384.9 160.32 313.98 203.16 313.81 181.96 384.9 140.56"/><polygon class="cls-11" points="231.18 134.43 302.78 91.35 384.9 140.56 313.81 181.96 231.18 134.43"/><polygon class="cls-12" points="236.61 162.38 313.98 207.17 313.98 203.13 236.61 156.99 236.61 162.38"/><polygon class="cls-12" points="313.98 207.17 378.45 167.83 378.45 164.31 313.98 203.13 313.98 207.17"/><polygon class="cls-4" points="378.93 149.6 378.93 147.29 354.44 162.22 354.44 164.76 378.93 149.6"/><polygon class="cls-4" points="378.93 154.94 378.93 152.62 354.44 167.55 354.44 170.09 378.93 154.94"/><polygon class="cls-4" points="379.31 160.05 379.31 157.73 354.82 172.66 354.82 175.21 379.31 160.05"/><polygon class="cls-4" points="346.84 179.32 346.84 177 322.35 191.93 322.35 194.48 346.84 179.32"/><polygon class="cls-4" points="346.84 175.02 346.84 167.74 334.59 175.21 334.59 182.72 346.84 175.02"/><polygon class="cls-13" points="329.61 185.59 329.61 178.31 322.35 182.69 322.35 190.2 329.61 185.59"/><polygon class="cls-6" points="231.18 106.49 231.18 126.36 313.98 175.19 313.81 154.01 231.18 106.49"/><polygon class="cls-5" points="384.9 112.61 384.9 132.38 313.98 175.22 313.81 154.01 384.9 112.61"/><polygon class="cls-11" points="231.18 106.49 302.78 63.41 384.9 112.61 313.81 154.01 231.18 106.49"/><polygon class="cls-12" points="236.61 134.44 313.98 179.23 313.98 175.19 236.61 129.05 236.61 134.44"/><polygon class="cls-12" points="313.98 179.23 378.45 139.89 378.45 136.37 313.98 175.19 313.98 179.23"/><polygon class="cls-4" points="378.93 121.66 378.93 119.34 354.44 134.28 354.44 136.82 378.93 121.66"/><polygon class="cls-4" points="378.93 127 378.93 124.68 354.44 139.61 354.44 142.15 378.93 127"/><polygon class="cls-4" points="379.31 132.11 379.31 129.79 354.82 144.72 354.82 147.27 379.31 132.11"/><polygon class="cls-4" points="346.84 151.38 346.84 149.06 322.35 163.99 322.35 166.54 346.84 151.38"/><polygon class="cls-4" points="346.84 147.08 346.84 139.8 334.59 147.27 334.59 154.77 346.84 147.08"/><polygon class="cls-13" points="329.61 157.65 329.61 150.37 322.35 154.75 322.35 162.26 329.61 157.65"/><polygon class="cls-6" points="231.36 78.78 231.36 98.65 314.16 147.48 313.99 126.3 231.36 78.78"/><polygon class="cls-5" points="385.08 84.9 385.08 104.67 314.16 147.51 313.99 126.3 385.08 84.9"/><polygon class="cls-11" points="231.36 78.78 302.96 35.7 385.08 84.9 313.99 126.3 231.36 78.78"/><polygon class="cls-12" points="236.79 106.73 314.16 151.52 314.16 147.48 236.79 101.34 236.79 106.73"/><polygon class="cls-12" points="314.16 151.52 378.63 112.18 378.63 108.66 314.16 147.48 314.16 151.52"/><polygon class="cls-4" points="379.12 93.95 379.12 91.63 354.63 106.56 354.63 109.11 379.12 93.95"/><polygon class="cls-4" points="379.12 99.28 379.12 96.97 354.63 111.9 354.63 114.44 379.12 99.28"/><polygon class="cls-4" points="379.5 104.4 379.5 102.08 355.01 117.01 355.01 119.56 379.5 104.4"/><polygon class="cls-4" points="347.02 123.67 347.02 121.35 322.53 136.28 322.53 138.83 347.02 123.67"/><polygon class="cls-4" points="347.02 119.37 347.02 112.09 334.77 119.56 334.77 127.06 347.02 119.37"/><polygon class="cls-13" points="329.8 129.94 329.8 122.66 322.53 127.04 322.53 134.55 329.8 129.94"/><polygon class="cls-11" points="87.13 193.68 87.13 206.53 98.83 200.11 98.83 186.85 87.13 193.68"/><polygon class="cls-11" points="89.73 163.47 89.73 176.31 101.44 169.89 101.44 156.63 89.73 163.47"/><polygon class="cls-11" points="116 178.27 116 191.11 127.71 184.69 127.71 171.43 116 178.27"/><polygon class="cls-11" points="134.35 151.14 134.35 163.98 146.06 157.56 146.06 144.3 134.35 151.14"/><polygon class="cls-11" points="110.15 135.82 110.15 148.67 121.85 142.25 121.85 128.99 110.15 135.82"/><line class="cls-14" x1="92.98" y1="190.27" x2="95.58" y2="173.1"/><line class="cls-14" x1="101.44" y1="163.98" x2="121.85" y2="174.85"/><line class="cls-14" x1="121.85" y1="135.97" x2="140.21" y2="147.79"/><line class="cls-14" x1="116" y1="145.46" x2="121.85" y2="174.85"/><line class="cls-14" x1="110.15" y1="141.88" x2="101.44" y2="163.98"/><line class="cls-14" x1="127.71" y1="178.75" x2="141.24" y2="160.2"/><line class="cls-14" x1="116" y1="185.69" x2="95.58" y2="173.1"/><polygon class="cls-10" points="56.53 139.49 56.53 154.21 163.76 93.1 163.76 78.76 56.53 139.49"/><polygon class="cls-7" points="61.34 143.23 61.34 145.78 63.66 144.5 63.66 141.88 61.34 143.23"/><polygon class="cls-7" points="65.92 140.74 65.92 143.29 68.24 142.02 68.24 139.39 65.92 140.74"/><polygon class="cls-7" points="70.42 138.23 70.42 140.78 72.73 139.5 72.73 136.88 70.42 138.23"/><polygon class="cls-9" points="90.94 165.72 90.94 167.2 100.22 161.94 100.22 160.37 90.94 165.72"/><polygon class="cls-9" points="90.94 168.89 90.94 170.36 100.22 165.1 100.22 163.54 90.94 168.89"/><polygon class="cls-9" points="90.94 172 90.94 173.47 100.22 168.21 100.22 166.65 90.94 172"/><polygon class="cls-9" points="117.22 180.49 117.22 181.96 126.49 176.7 126.49 175.13 117.22 180.49"/><polygon class="cls-9" points="117.22 183.65 117.22 185.13 126.49 179.87 126.49 178.3 117.22 183.65"/><polygon class="cls-9" points="117.22 186.76 117.22 188.23 126.49 182.97 126.49 181.41 117.22 186.76"/><polygon class="cls-9" points="135.57 153.45 135.57 154.92 144.84 149.66 144.84 148.1 135.57 153.45"/><polygon class="cls-9" points="135.57 156.62 135.57 158.09 144.84 152.83 144.84 151.27 135.57 156.62"/><polygon class="cls-9" points="135.57 159.73 135.57 161.2 144.84 155.94 144.84 154.38 135.57 159.73"/><polygon class="cls-9" points="88.34 195.49 88.34 196.96 97.62 191.7 97.62 190.14 88.34 195.49"/><polygon class="cls-9" points="88.34 198.66 88.34 200.13 97.62 194.87 97.62 193.31 88.34 198.66"/><polygon class="cls-9" points="88.34 201.77 88.34 203.24 97.62 197.98 97.62 196.41 88.34 201.77"/><polygon class="cls-9" points="111.36 137.9 111.36 139.37 120.64 134.11 120.64 132.55 111.36 137.9"/><polygon class="cls-9" points="111.36 141.07 111.36 142.54 120.64 137.28 120.64 135.72 111.36 141.07"/><polygon class="cls-9" points="111.36 144.18 111.36 145.65 120.64 140.39 120.64 138.83 111.36 144.18"/><path d="M169.38,262.2a3.92,3.92,0,0,1,2.21,3.91,6.55,6.55,0,0,1-.33,1.91,3.21,3.21,0,0,1-4.31,1.33c-2.38-.94-7.65-5.9-7.85-9.14C158.73,254.18,165.62,260.6,169.38,262.2Z"/><path d="M155.44,272.52s.41,3.5.1,4.13a4.47,4.47,0,0,1-4.45,1.49c-2.42-.41-9.33-3.16-10.67-7.86-2.09-7.29,13.52,1.18,13.52,1.18Z"/><path class="cls-15" d="M148.56,216.62,148,270.87a3.8,3.8,0,0,0,3,3.76l.66.08a3.39,3.39,0,0,0,3.22-1.33,4.09,4.09,0,0,0,.73-2.19l.69-23.16,3.46-20.71L164.51,264a3.17,3.17,0,0,0,1.31,2.41A3.66,3.66,0,0,0,168,267a4,4,0,0,0,2.9-1.42,2.93,2.93,0,0,0,.7-2l-1.9-22L169,213.41Z"/><path class="cls-16" d="M155.58,168.06l.86,4.94a2.27,2.27,0,0,1-1.85,2.16c-1.89.46-2.47-.75-2.47-.75l-.85-5.57Z"/><path class="cls-16" d="M145.2,165.35c1.34,4.24,5.48,6.69,9.24,5.49s5.74-5.61,4.4-9.85-5.47-6.69-9.24-5.48S143.87,161.12,145.2,165.35Z"/><path class="cls-17" d="M155.36,173.09c.13-.05,8-5.11,10.89.18,4.74,8.64,1.27,18.54,3,40,.29,3.59-4.84,5.78-7.26,7.17a14.51,14.51,0,0,1-7,2c-2.45,0-7.16-2.16-7-5.37.78-14.77-.52-27.21-1.73-39.29C146.18,177.82,147.69,176.2,155.36,173.09Z"/><path class="cls-15" d="M159.73,227.32,164.51,264a3.17,3.17,0,0,0,1.31,2.41l.41.23c-1-.74-3.89-31.5-4.43-34.92S159.73,227.32,159.73,227.32Z"/><polygon class="cls-16" points="129.87 177.57 123.29 164.51 125.36 163.2 132.18 173.15 129.87 177.57"/><path class="cls-2" d="M146.18,177.82s-7.36,2.9-13.68-5.08a1.21,1.21,0,0,0-2,.14c-.57,1.3-1.28,3.28-.42,5.13,3.82,8.21,16.86,7.92,20,12.52S146.18,177.82,146.18,177.82Z"/><path d="M150.33,165.48a.9.9,0,0,1-.75-.39c-.3-.43-.11-2.42-1-2.74-1.44-.52-4.85,1.28-5.21-3.9-.19-2.7,1.12-3.41,1.11-4.89,0,0-.11.74,6.82.28s9.19,5.7,9.36,8.63-1.26,7.75-6,8.42c-.78.11-4.08-2.55-4-2.9s1.33-.32,1.15-1.34A1.31,1.31,0,0,0,150.33,165.48Z"/><path class="cls-16" d="M123.25,164.59l-.78-1.47a3.41,3.41,0,0,1-.38-1.69l.09-3.24.11-.69a1.27,1.27,0,0,1,1.32-1.08l.46,0a1.58,1.58,0,0,1,1.36.89l.41,2.48.85-.73a.4.4,0,0,1,.56,0h0a.39.39,0,0,1,0,.49l-1.2,1.52-.31,3.17Z"/></svg>