<svg width="248" height="243" viewBox="0 0 248 243" fill="none" xmlns="http://www.w3.org/2000/svg">
<path d="M61.4001 191.6C79.8001 205.6 129.4 219.3 153.4 203C211.7 169.8 212.9 100.9 212.9 100.9C215.6 80.6 207.8 18.1 134.5 20.3C48.6001 22.8 32.7001 98.2 34.6001 118C37.0001 151.4 45.1001 179.3 61.4001 191.6Z" fill="#F2F8FE"/>
<path d="M81.4004 176.7L84.5004 178.8L165.9 132.5L162.1 130.9L81.4004 176.7Z" fill="#E5EAEF"/>
<path d="M149.306 181.49C160.846 177.872 168.675 170.068 166.791 164.06C164.907 158.052 154.025 156.116 142.484 159.735C130.943 163.354 123.114 171.158 124.998 177.165C126.882 183.173 137.765 185.109 149.306 181.49Z" fill="#E5EAEF"/>
<path d="M77.8004 178.8V91C77.7033 89.9687 77.9433 88.9337 78.4841 88.0503C79.025 87.1668 79.8377 86.4825 80.8004 86.1C84.3004 84.5 162.7 39.4 162.7 39.4C162.7 39.4 166 37.1 165.9 41V128.7L77.8004 178.8Z" fill="#73B9FE"/>
<path d="M89.9004 96.4V155.4L157 117.6L156.5 58.7L89.9004 96.4Z" fill="white"/>
<path d="M89.9004 96.4V104.9L156.5 67V58.7L89.9004 96.4Z" fill="#1C8EF7"/>
<path d="M92.7002 98.5V100L94.0002 99.3V97.8L92.7002 98.5Z" fill="white"/>
<path d="M95.2998 97.1V98.6L96.5998 97.9V96.4L95.2998 97.1Z" fill="white"/>
<path d="M97.9004 95.6V97.1L99.2004 96.4V94.9L97.9004 95.6Z" fill="white"/>
<path d="M155.2 167.3C155.62 167.488 155.969 167.802 156.2 168.2C156.394 168.606 156.496 169.05 156.5 169.5C156.482 169.874 156.415 170.244 156.3 170.6C156.194 170.822 156.041 171.017 155.851 171.173C155.661 171.328 155.438 171.44 155.2 171.5C154.735 171.62 154.243 171.585 153.8 171.4C152.4 170.9 149.4 168 149.3 166.1C149 162.6 153 166.3 155.2 167.3Z" fill="black"/>
<path d="M147.1 173.2C147.193 173.996 147.226 174.799 147.2 175.6C146.886 175.977 146.469 176.254 146 176.4C145.556 176.582 145.066 176.617 144.6 176.5C143.2 176.3 139.2 174.7 138.4 172C137.2 167.8 146.2 172.7 146.2 172.7L147.1 173.2Z" fill="black"/>
<path d="M143.2 140.9L142.9 172.3C142.914 172.808 143.089 173.298 143.4 173.7C143.726 174.112 144.186 174.395 144.7 174.5C144.84 174.496 144.979 174.53 145.1 174.6C145.436 174.672 145.786 174.637 146.1 174.5C146.406 174.358 146.679 174.154 146.9 173.9C147.182 173.527 147.323 173.067 147.3 172.6L147.7 159.2L149.7 147.2L152.5 168.4C152.519 168.676 152.587 168.947 152.7 169.2C152.81 169.441 152.983 169.649 153.2 169.8C153.585 170.051 154.045 170.157 154.5 170.1C154.809 170.081 155.113 170.014 155.4 169.9C155.711 169.767 155.986 169.561 156.2 169.3C156.346 169.138 156.456 168.948 156.525 168.741C156.594 168.535 156.619 168.317 156.6 168.1L155.5 155.4L155.1 139.1L143.2 140.9Z" fill="#35DAB3"/>
<path d="M147.2 112.9L147.7 115.8C147.708 116.095 147.6 116.382 147.4 116.6C147.193 116.829 146.908 116.972 146.6 117C145.5 117.3 145.2 116.6 145.2 116.6L144.7 113.4L147.2 112.9Z" fill="#F7BFAF"/>
<path d="M147.1 115.8C147.2 115.8 151.7 112.8 153.4 115.9C156.1 120.9 154.1 126.6 155.1 139C155.3 141.1 152.3 142.3 150.9 143.1C149.645 143.811 148.241 144.222 146.8 144.3C145.4 144.3 142.7 143.1 142.7 141.2C143.2 132.7 142.4 125.5 141.7 118.5C143.37 117.36 145.186 116.451 147.1 115.8Z" fill="#B8E2F5"/>
<path d="M149.6 147.1L152.4 168.3C152.419 168.576 152.486 168.847 152.6 169.1C152.709 169.341 152.882 169.549 153.1 169.7L153.3 169.8C152.7 169.4 151 151.6 150.7 149.6C150.7 149.13 150.603 148.664 150.413 148.234C150.224 147.803 149.947 147.417 149.6 147.1Z" fill="#00AEA4"/>
<path d="M142.4 132.5L141.2 141L139.7 140.9L139.9 133.9L142.4 132.5Z" fill="#F7BFAF"/>
<path d="M141.2 140.9L141.1 141.9C141.028 142.224 140.892 142.53 140.7 142.8L139.5 144.3L139.2 144.6C139.063 144.725 138.885 144.797 138.7 144.8C138.5 144.8 138.3 144.8 138.2 144.6L138 144.4C137.876 144.286 137.775 144.151 137.7 144C137.651 143.926 137.624 143.839 137.624 143.75C137.624 143.661 137.651 143.574 137.7 143.5L138.4 142.2H137.6C137.573 142.2 137.548 142.189 137.529 142.171C137.511 142.152 137.5 142.127 137.5 142.1V142L137.6 141.9L138.7 141.6L139.9 140.2L141.2 140.9Z" fill="#F7BFAF"/>
<path d="M142.1 118.4C142.1 118.4 139.2 119.9 139.4 121.8C139.6 123.7 139.9 133.9 139.9 133.9L142.1 134.7L143.9 118.9L142.1 118.4Z" fill="#B8E2F5"/>
<path d="M105.6 131.9L137.4 114.7" stroke="#3582C4" stroke-miterlimit="10"/>
<path d="M109.1 126V133.4L115.9 129.7V122L109.1 126Z" fill="#A2E1FE"/>
<path d="M109.8 127.3V128.2L115.2 125.2V124.3L109.8 127.3Z" fill="#73B9FE"/>
<path d="M109.8 129.1V130L115.2 127V126.1L109.8 129.1Z" fill="#73B9FE"/>
<path d="M109.8 130.9V131.7L115.2 128.7V127.8L109.8 130.9Z" fill="#73B9FE"/>
<path d="M117.5 121.5V128.9L124.3 125.2V117.5L117.5 121.5Z" fill="#A2E1FE"/>
<path d="M118.2 122.8V123.7L123.6 120.7V119.8L118.2 122.8Z" fill="#73B9FE"/>
<path d="M118.2 124.6V125.5L123.6 122.5V121.6L118.2 124.6Z" fill="#73B9FE"/>
<path d="M118.2 126.4V127.2L123.6 124.2V123.3L118.2 126.4Z" fill="#73B9FE"/>
<path d="M125.9 116.8V124.2L132.7 120.5V112.9L125.9 116.8Z" fill="#A2E1FE"/>
<path d="M126.6 118.1V119L132 116V115.1L126.6 118.1Z" fill="#73B9FE"/>
<path d="M126.6 119.9V120.8L132 117.8V116.9L126.6 119.9Z" fill="#73B9FE"/>
<path d="M126.6 121.7V122.5L132 119.5V118.6L126.6 121.7Z" fill="#73B9FE"/>
<path d="M134.5 112.3V119.7L141.3 116V108.3L134.5 112.3Z" fill="#A2E1FE"/>
<path d="M135.2 113.6V114.5L140.6 111.5V110.6L135.2 113.6Z" fill="#73B9FE"/>
<path d="M135.2 115.4V116.3L140.6 113.3V112.4L135.2 115.4Z" fill="#73B9FE"/>
<path d="M135.2 117.2V118L140.6 115V114.1L135.2 117.2Z" fill="#73B9FE"/>
<path d="M141.2 111.3C142 113.7 144.4 115.2 146.5 114.5C148.6 113.8 149.8 111.3 149 108.8C148.2 106.3 145.8 104.9 143.7 105.6C142.627 106.043 141.768 106.884 141.302 107.947C140.836 109.009 140.799 110.211 141.2 111.3Z" fill="#F7BFAF"/>
<path d="M144.2 111.4C144.1 111.4 144 111.4 144 111.3C144 111.2 143.9 111.2 143.8 111.1C143.7 111 143.7 109.7 143.2 109.5C142.4 109.2 140.4 110.2 140.2 107.2C140.1 105.6 140.8 105.2 140.8 104.4C140.8 104.4 140.7 104.8 144.7 104.6C148.7 104.4 150 107.9 150.1 109.6C150.1 110.3 151.1 118.2 150.7 119C150.3 119.8 148.1 119.7 147.4 120.1C147 120.3 145.9 115.3 145.6 114.8C145.074 114.162 144.637 113.455 144.3 112.7C144.3 112.5 145.1 112.5 145 111.9C145.007 111.846 145.001 111.791 144.984 111.739C144.967 111.687 144.938 111.64 144.9 111.6C144.896 111.548 144.873 111.5 144.837 111.464C144.8 111.427 144.752 111.405 144.7 111.4C144.661 111.362 144.613 111.334 144.561 111.316C144.51 111.299 144.454 111.293 144.4 111.3C144.3 111.3 144.3 111.4 144.2 111.4Z" fill="#7F1715"/>
<path d="M164.3 38.7L155.2 35.9C155.2 35.9 78.9004 79.4 75.0004 81.5C71.1004 83.6 71.2004 88.2 71.2004 88.2V174.5L77.8004 178.7V91C77.8004 91 77.1004 88.4 80.8004 86.1C85.1004 83.5 164.3 38.7 164.3 38.7Z" fill="#1C8EF7"/>
<path d="M97.5001 122V113C97.5001 113 97.4001 108.8 99.1001 107.4C99.898 106.966 100.61 106.39 101.2 105.7C101.4 105.1 102 103.3 102.6 103C103.2 102.7 104.1 104.7 104.6 104.5C106.5 103.8 108 103.5 108.2 106.8C108.5 113 108.4 116.2 108.4 116.2L97.5001 122Z" fill="#35DAB3"/>
<path d="M103.5 129.7V123.2" stroke="#73B9FE" stroke-miterlimit="10"/>
<path d="M102.3 119.9L104.7 118.5V119.8C104.688 120.314 104.586 120.821 104.4 121.3C104.172 121.638 103.862 121.913 103.5 122.1C102.9 122.4 102.3 122.6 102.3 121.4V119.9Z" fill="#35DAB3"/>
<path d="M100.4 130.8V138.2L107.2 134.5V126.8L100.4 130.8Z" fill="#A2E1FE"/>
<path d="M101.1 132.1V133L106.5 130V129.1L101.1 132.1Z" fill="#73B9FE"/>
<path d="M101.1 133.9V134.8L106.5 131.8V130.9L101.1 133.9Z" fill="#73B9FE"/>
<path d="M101.1 135.7V136.5L106.5 133.5V132.6L101.1 135.7Z" fill="#73B9FE"/>
<path d="M116.6 108.6V102.7C116.6 102.7 116.5 99.9 117.7 99C118.241 98.6962 118.717 98.2884 119.1 97.8C119.3 97.4 119.6 96.2 120 96C120.4 95.8 121 97.1 121.3 97C122.5 96.5 123.5 96.3 123.7 98.5C123.9 102.6 123.8 104.7 123.8 104.7L116.6 108.6Z" fill="#35DAB3"/>
<path d="M119.8 107.2L121.4 106.3V107.2C121.372 107.54 121.305 107.876 121.2 108.2C121.138 108.319 121.054 108.425 120.951 108.511C120.848 108.597 120.728 108.661 120.6 108.7C120.2 108.9 119.8 109 119.8 108.2V107.2Z" fill="#35DAB3"/>
<path d="M102.9 129.4V123.2L104 122.5V128.7L102.9 129.4Z" fill="#E5EAEF"/>
<path d="M120.2 120.1V109.9L121.3 109.2V119.4L120.2 120.1Z" fill="#E5EAEF"/>
<path d="M105.6 104.3C105.555 103.843 105.656 103.383 105.89 102.987C106.124 102.591 106.478 102.281 106.9 102.1C108.2 101.3 108.2 102.8 108.2 102.9C108.235 103.283 108.171 103.668 108.013 104.018C107.856 104.369 107.61 104.672 107.3 104.9C106.3 105.5 105.7 105 105.6 104.3Z" fill="#E6213B"/>
<path d="M131.6 103.5V94.5C131.6 94.5 131.5 90.3 133.2 88.9C133.998 88.4662 134.709 87.8901 135.3 87.2C135.5 86.6 136.1 84.8 136.7 84.5C137.3 84.2 138.2 86.2 138.7 86C140.6 85.3 142.1 85 142.3 88.3C142.6 94.5 142.5 97.7 142.5 97.7L131.6 103.5Z" fill="#35DAB3"/>
<path d="M136.3 101.4L138.7 100V101.3C138.688 101.814 138.586 102.321 138.4 102.8C138.172 103.138 137.862 103.413 137.5 103.6C136.9 103.9 136.3 104.1 136.3 102.9V101.4Z" fill="#35DAB3"/>
<path d="M137 110.9V104.7L138.1 104V110.2L137 110.9Z" fill="#E5EAEF"/>
<path d="M139.7 85.8C139.655 85.3427 139.756 84.8828 139.99 84.4871C140.224 84.0915 140.578 83.7807 141 83.6C142.3 82.8 142.3 84.3 142.3 84.4C142.335 84.7827 142.271 85.1679 142.113 85.5183C141.955 85.8687 141.71 86.1724 141.4 86.4C140.4 87 139.7 86.5 139.7 85.8Z" fill="#1C8EF7"/>
</svg>
