<svg id="Capa_1" data-name="Capa 1" xmlns="http://www.w3.org/2000/svg" viewBox="0 0 563.37 510.41"><defs><style>.cls-1{fill:#f2f8fe;}.cls-2{fill:#34d6b0;}.cls-3{fill:#cae8fb;}.cls-4{fill:#1981df;}.cls-5{fill:#75b9ff;}.cls-6{fill:#1d90f7;}.cls-14,.cls-7{fill:#fff;}.cls-8{fill:#e7e7e7;}.cls-9{fill:#73b9fe;}.cls-10{fill:#1c8ef7;}.cls-11{fill:#a2e1fe;}.cls-12{fill:#146da3;}.cls-13{fill:#32d5b7;}.cls-14{stroke:#3582c4;stroke-miterlimit:10;stroke-width:0.5px;}.cls-15{fill:#1b8cff;}.cls-16{fill:#f7bfaf;}.cls-17{fill:#35dab3;}</style></defs><title>storage2</title><path class="cls-1" d="M110.79,399.77c21.6,24.74,75.33,52.26,206.74-5.12C480.76,323.38,493,213.79,493,213.79c6.45-35.19-12.4-143.23-189-139.45C97,78.78,81,282.66,85.45,317,88.72,342.43,89.18,375,110.79,399.77Z"/><path class="cls-2" d="M283.89,276.5a1.1,1.1,0,0,1-.55-2.06l23.71-13.58a.81.81,0,0,0,.42-.72.82.82,0,0,0-.42-.71L285,246.76a10.33,10.33,0,0,1-5.17-8.94V165.25a9.62,9.62,0,0,1,4.21-8l1.74-1.18s8.35-5.39,10.18-6.72c2.9-2.09,8.09,2,8.09,2l4,2.65a6.32,6.32,0,0,1,1.94,1.26c.34.51-.29,1.15-.8,1.5l-1.38-.95-4.66-3.19s-3.82-3.06-5.84-1.5c-1.21.93-10.28,6.78-10.28,6.78l-1.75,1.19a7.4,7.4,0,0,0-3.24,6.13v72.57a8.13,8.13,0,0,0,4.06,7l22.06,12.66a3,3,0,0,1,0,5.26l-23.71,13.58A1.08,1.08,0,0,1,283.89,276.5Z"/><path class="cls-3" d="M110.79,353.83l-3.28-2v-111a15.42,15.42,0,0,1,8.82-10C123.8,227.39,256,150.7,256,150.7s6.31-1,7,.9c1.3,3.05,1.7,4.26,1.7,4.26l-70,135.67Z"/><polygon class="cls-4" points="313.49 234.17 390.86 278.97 390.86 274.92 313.49 228.79 313.49 234.17"/><polygon class="cls-4" points="391.7 278.97 456.18 241.3 456.18 237.23 391.7 274.71 391.7 278.97"/><polyline class="cls-5" points="391.7 275.46 391.7 253.92 463.22 211.58"/><polygon class="cls-6" points="308.06 148.88 308.06 168.75 390.86 217.44 390.86 196.91 308.06 148.88"/><polygon class="cls-6" points="308.06 177.3 308.06 197.17 390.86 245.87 390.86 225.34 308.06 177.3"/><polygon class="cls-6" points="308.91 206 308.91 226.94 391.7 275.64 391.7 254.04 308.91 206"/><path class="cls-7" d="M110.79,349.55l97.94,58.37,7.46.37s139.91-80.52,144.47-83.17c5.54-3.2,0-6.45,0-6.45S273,267,268.35,264.37a9.69,9.69,0,0,0-9.16,0L122.78,342.42Z"/><path class="cls-8" d="M132.05,353.17l47.51,26.92a9,9,0,0,0,8.82,0c4.57-2.64,121.15-70.07,126.69-73.3s0-7,0-7-41.06-24-45.7-26.7a8.85,8.85,0,0,0-8.82,0l-128.5,74.43S127.23,350.43,132.05,353.17Z"/><polygon class="cls-8" points="240.64 358.82 261 370.59 270.05 370.59 303.99 351.13 303.99 345.02 284.76 332.81 276.16 332.81 240.64 354.3 240.64 358.82"/><path class="cls-8" d="M363.09,321.86l-.12,3.85L219,410.16s-6.16,2.71-10.46.45-97.73-56.78-97.73-56.78v-4.3l97.53,57.88s5.38,2.08,8.33.4S363.09,321.86,363.09,321.86Z"/><path class="cls-9" d="M112.43,348.58V243.52s-.85-5.66,5.26-8.52,141.5-80.8,141.5-80.8,5.66-4,5.6,2.83,0,105,0,105Z"/><polygon class="cls-10" points="121.19 336.33 257.83 256.12 257.83 165.17 121.19 243.52 121.19 336.33"/><polygon class="cls-7" points="133.41 206 133.41 308.15 240.64 247.04 240.64 145.27 133.41 206"/><polygon class="cls-4" points="313.91 206.23 391.28 251.03 391.28 246.98 313.91 200.85 313.91 206.23"/><polygon class="cls-4" points="392.13 251.03 456.6 213.36 456.6 209.29 392.13 246.77 392.13 251.03"/><polygon class="cls-4" points="313.49 178.18 390.86 222.97 390.86 218.93 313.49 172.79 313.49 178.18"/><polygon class="cls-4" points="391.7 222.97 456.18 185.31 456.18 181.24 391.7 218.72 391.7 222.97"/><polygon class="cls-6" points="308.06 229.26 308.06 249.14 390.86 297.96 390.69 276.79 308.06 229.26"/><polygon class="cls-5" points="461.78 235.39 461.78 255.16 390.86 298 390.69 276.79 461.78 235.39"/><polygon class="cls-11" points="308.06 229.26 379.66 186.19 461.78 235.39 390.69 276.79 308.06 229.26"/><polygon class="cls-12" points="313.49 257.21 390.86 302.01 390.86 297.96 313.49 251.83 313.49 257.21"/><polygon class="cls-12" points="390.86 302.01 455.33 262.66 455.33 259.14 390.86 297.96 390.86 302.01"/><polygon class="cls-4" points="455.81 244.44 455.81 242.12 431.32 257.05 431.32 259.6 455.81 244.44"/><polygon class="cls-4" points="455.81 249.77 455.81 247.45 431.32 262.38 431.32 264.93 455.81 249.77"/><polygon class="cls-4" points="456.19 254.89 456.19 252.57 431.7 267.5 431.7 270.04 456.19 254.89"/><polygon class="cls-4" points="423.72 274.16 423.72 271.84 399.23 286.77 399.23 289.31 423.72 274.16"/><polygon class="cls-4" points="423.72 269.86 423.72 262.58 411.47 270.04 411.47 277.55 423.72 269.86"/><polygon class="cls-13" points="406.49 280.43 406.49 273.15 399.23 277.53 399.23 285.04 406.49 280.43"/><polygon class="cls-6" points="308.06 200.93 308.06 220.81 390.86 269.63 390.69 248.46 308.06 200.93"/><polygon class="cls-5" points="461.78 207.06 461.78 226.83 390.86 269.67 390.69 248.46 461.78 207.06"/><polygon class="cls-11" points="308.06 200.93 379.66 157.86 461.78 207.06 390.69 248.46 308.06 200.93"/><polygon class="cls-12" points="313.49 228.89 390.86 273.68 390.86 269.63 313.49 223.5 313.49 228.89"/><polygon class="cls-12" points="390.86 273.68 455.33 234.34 455.33 230.81 390.86 269.63 390.86 273.68"/><polygon class="cls-4" points="455.81 216.11 455.81 213.79 431.32 228.72 431.32 231.27 455.81 216.11"/><polygon class="cls-4" points="455.81 221.44 455.81 219.12 431.32 234.05 431.32 236.6 455.81 221.44"/><polygon class="cls-4" points="456.19 226.56 456.19 224.24 431.7 239.17 431.7 241.72 456.19 226.56"/><polygon class="cls-4" points="423.72 245.83 423.72 243.51 399.23 258.44 399.23 260.99 423.72 245.83"/><polygon class="cls-4" points="423.72 241.53 423.72 234.25 411.47 241.72 411.47 249.22 423.72 241.53"/><polygon class="cls-13" points="406.49 252.1 406.49 244.82 399.23 249.2 399.23 256.71 406.49 252.1"/><polygon class="cls-6" points="308.06 172.99 308.06 192.87 390.86 241.69 390.69 220.52 308.06 172.99"/><polygon class="cls-5" points="461.78 179.12 461.78 198.89 390.86 241.73 390.69 220.52 461.78 179.12"/><polygon class="cls-11" points="308.06 172.99 379.66 129.91 461.78 179.12 390.69 220.52 308.06 172.99"/><polygon class="cls-12" points="313.49 200.94 390.86 245.74 390.86 241.69 313.49 195.56 313.49 200.94"/><polygon class="cls-12" points="390.86 245.74 455.33 206.39 455.33 202.87 390.86 241.69 390.86 245.74"/><polygon class="cls-4" points="455.81 188.17 455.81 185.85 431.32 200.78 431.32 203.33 455.81 188.17"/><polygon class="cls-4" points="455.81 193.5 455.81 191.18 431.32 206.11 431.32 208.66 455.81 193.5"/><polygon class="cls-4" points="456.19 198.62 456.19 196.3 431.7 211.23 431.7 213.77 456.19 198.62"/><polygon class="cls-4" points="423.72 217.89 423.72 215.57 399.23 230.5 399.23 233.04 423.72 217.89"/><polygon class="cls-4" points="423.72 213.59 423.72 206.31 411.47 213.77 411.47 221.28 423.72 213.59"/><polygon class="cls-13" points="406.49 224.16 406.49 216.88 399.23 221.26 399.23 228.76 406.49 224.16"/><polygon class="cls-6" points="308.24 145.28 308.24 165.15 391.04 213.98 390.87 192.81 308.24 145.28"/><polygon class="cls-5" points="461.96 151.41 461.96 171.18 391.04 214.02 390.87 192.81 461.96 151.41"/><polygon class="cls-11" points="308.24 145.28 379.84 102.2 461.96 151.41 390.87 192.81 308.24 145.28"/><polygon class="cls-12" points="313.67 173.23 391.04 218.03 391.04 213.98 313.67 167.85 313.67 173.23"/><polygon class="cls-12" points="391.04 218.03 455.51 178.68 455.51 175.16 391.04 213.98 391.04 218.03"/><polygon class="cls-4" points="456 160.46 456 158.14 431.51 173.07 431.51 175.62 456 160.46"/><polygon class="cls-4" points="456 165.79 456 163.47 431.51 178.4 431.51 180.95 456 165.79"/><polygon class="cls-4" points="456.38 170.91 456.38 168.59 431.89 183.52 431.89 186.06 456.38 170.91"/><polygon class="cls-4" points="423.9 190.18 423.9 187.86 399.41 202.79 399.41 205.33 423.9 190.18"/><polygon class="cls-4" points="423.9 185.88 423.9 178.6 411.65 186.06 411.65 193.57 423.9 185.88"/><polygon class="cls-13" points="406.68 196.45 406.68 189.17 399.41 193.55 399.41 201.05 406.68 196.45"/><polygon class="cls-11" points="164.01 260.19 164.01 273.03 175.72 266.61 175.72 253.35 164.01 260.19"/><polygon class="cls-11" points="166.61 229.97 166.61 242.82 178.32 236.4 178.32 223.14 166.61 229.97"/><polygon class="cls-11" points="192.88 244.77 192.88 257.62 204.59 251.19 204.59 237.94 192.88 244.77"/><polygon class="cls-11" points="211.23 217.64 211.23 230.49 222.94 224.06 222.94 210.81 211.23 217.64"/><polygon class="cls-11" points="187.03 202.33 187.03 215.17 198.73 208.75 198.73 195.49 187.03 202.33"/><line class="cls-14" x1="169.86" y1="256.77" x2="172.46" y2="239.61"/><line class="cls-14" x1="178.32" y1="230.49" x2="198.73" y2="241.35"/><line class="cls-14" x1="198.73" y1="202.48" x2="217.09" y2="214.29"/><line class="cls-14" x1="192.88" y1="211.96" x2="198.73" y2="241.35"/><line class="cls-14" x1="187.03" y1="208.38" x2="178.32" y2="230.49"/><line class="cls-14" x1="204.59" y1="245.26" x2="218.12" y2="226.71"/><line class="cls-14" x1="192.88" y1="252.2" x2="172.46" y2="239.61"/><polygon class="cls-10" points="133.41 206 133.41 220.71 240.64 159.61 240.64 145.27 133.41 206"/><polygon class="cls-7" points="138.22 209.74 138.22 212.28 140.54 211.01 140.54 208.38 138.22 209.74"/><polygon class="cls-7" points="142.8 207.25 142.8 209.79 145.12 208.52 145.12 205.9 142.8 207.25"/><polygon class="cls-7" points="147.29 204.74 147.29 207.28 149.61 206.01 149.61 203.38 147.29 204.74"/><polygon class="cls-9" points="167.82 232.23 167.82 233.7 177.1 228.44 177.1 226.88 167.82 232.23"/><polygon class="cls-9" points="167.82 235.4 167.82 236.87 177.1 231.61 177.1 230.05 167.82 235.4"/><polygon class="cls-9" points="167.82 238.51 167.82 239.98 177.1 234.72 177.1 233.16 167.82 238.51"/><polygon class="cls-9" points="194.1 246.99 194.1 248.46 203.37 243.2 203.37 241.64 194.1 246.99"/><polygon class="cls-9" points="194.1 250.16 194.1 251.63 203.37 246.37 203.37 244.81 194.1 250.16"/><polygon class="cls-9" points="194.1 253.27 194.1 254.74 203.37 249.48 203.37 247.92 194.1 253.27"/><polygon class="cls-9" points="212.45 219.96 212.45 221.43 221.72 216.17 221.72 214.6 212.45 219.96"/><polygon class="cls-9" points="212.45 223.13 212.45 224.6 221.72 219.34 221.72 217.77 212.45 223.13"/><polygon class="cls-9" points="212.45 226.24 212.45 227.71 221.72 222.45 221.72 220.88 212.45 226.24"/><polygon class="cls-9" points="165.22 262 165.22 263.47 174.5 258.21 174.5 256.64 165.22 262"/><polygon class="cls-9" points="165.22 265.16 165.22 266.63 174.5 261.38 174.5 259.81 165.22 265.16"/><polygon class="cls-9" points="165.22 268.27 165.22 269.74 174.5 264.48 174.5 262.92 165.22 268.27"/><polygon class="cls-9" points="188.24 204.41 188.24 205.88 197.52 200.62 197.52 199.06 188.24 204.41"/><polygon class="cls-9" points="188.24 207.58 188.24 209.05 197.52 203.79 197.52 202.22 188.24 207.58"/><polygon class="cls-9" points="188.24 210.69 188.24 212.16 197.52 206.9 197.52 205.33 188.24 210.69"/><path d="M246.26,328.71a3.92,3.92,0,0,1,2.21,3.91,6.62,6.62,0,0,1-.33,1.91,3.21,3.21,0,0,1-4.31,1.32c-2.38-.94-7.65-5.89-7.85-9.14C235.61,320.68,242.5,327.1,246.26,328.71Z"/><path d="M232.32,339s.41,3.5.1,4.12a4.49,4.49,0,0,1-4.45,1.5c-2.42-.41-9.33-3.17-10.67-7.87-2.09-7.28,13.52,1.18,13.52,1.18Z"/><path class="cls-15" d="M225.44,283.12l-.55,54.25a3.8,3.8,0,0,0,3,3.76c.2,0,.42.06.66.09a3.39,3.39,0,0,0,3.22-1.34,4,4,0,0,0,.73-2.19l.69-23.16,3.46-20.7,4.78,36.64a3.19,3.19,0,0,0,1.31,2.42,3.66,3.66,0,0,0,2.18.59,4,4,0,0,0,2.9-1.43,2.91,2.91,0,0,0,.7-2l-1.9-22-.71-28.12Z"/><path class="cls-16" d="M232.46,234.56l.86,4.95a2.27,2.27,0,0,1-1.85,2.15c-1.89.47-2.47-.75-2.47-.75l-.85-5.56Z"/><path class="cls-16" d="M222.08,231.86c1.34,4.23,5.48,6.69,9.24,5.49s5.74-5.61,4.4-9.85-5.47-6.69-9.24-5.49S220.75,227.62,222.08,231.86Z"/><path class="cls-17" d="M232.24,239.6c.13-.06,8-5.12,10.89.18,4.74,8.63,1.27,18.54,3,40,.29,3.6-4.84,5.79-7.26,7.17a14.41,14.41,0,0,1-7.05,2c-2.45,0-7.16-2.16-7-5.38.78-14.76-.52-27.21-1.73-39.29C223.06,244.32,224.57,242.7,232.24,239.6Z"/><path class="cls-15" d="M236.61,293.83l4.78,36.64a3.19,3.19,0,0,0,1.31,2.42l.41.23c-1-.75-3.89-31.51-4.43-34.93S236.61,293.83,236.61,293.83Z"/><polygon class="cls-16" points="206.75 244.07 200.17 231.01 202.24 229.71 209.06 239.66 206.75 244.07"/><path class="cls-2" d="M223.06,244.32s-7.36,2.91-13.68-5.07a1.22,1.22,0,0,0-2,.13c-.57,1.31-1.28,3.29-.42,5.14,3.82,8.2,16.86,7.92,20,12.51S223.06,244.32,223.06,244.32Z"/><path d="M227.21,232a.92.92,0,0,1-.75-.39c-.3-.43-.11-2.42-1-2.75-1.44-.51-4.85,1.29-5.21-3.9-.19-2.69,1.12-3.41,1.11-4.88,0,0-.11.74,6.82.28s9.19,5.69,9.36,8.63-1.26,7.75-6,8.41c-.78.11-4.08-2.54-4-2.89s1.33-.33,1.15-1.34A1.29,1.29,0,0,0,227.21,232Z"/><path class="cls-16" d="M200.13,231.09l-.78-1.47a3.41,3.41,0,0,1-.38-1.69l.09-3.23.11-.7a1.28,1.28,0,0,1,1.32-1.08l.46,0a1.61,1.61,0,0,1,1.36.89l.41,2.49.85-.73a.4.4,0,0,1,.56,0h0a.39.39,0,0,1,0,.49l-1.2,1.52-.31,3.16Z"/></svg>