<svg id="Capa_1" data-name="Capa 1" xmlns="http://www.w3.org/2000/svg" xmlns:xlink="http://www.w3.org/1999/xlink" viewBox="0 0 550.74 510.41"><defs><style>.cls-1{fill:#f2f8fe;}.cls-2{fill:#d4ebfa;}.cls-3{fill:#34d6b0;}.cls-4{fill:#b7e2ff;}.cls-5{fill:#1c8bff;}.cls-6{fill:#49c1f0;}.cls-7{fill:#396daa;}.cls-8{fill:#5692cd;}.cls-9{fill:url(#_ÂÁ_Ï_ÌÌ_È_ËÂÌÚ_242);}.cls-10{fill:#e9e9e9;}.cls-11{fill:gray;}.cls-12{fill:#f7bfaf;}.cls-13{fill:#fff;}.cls-14{fill:#ea9c91;}.cls-15{fill:#009cc2;}.cls-16{fill:#1b3e77;}.cls-17{fill:#274f89;}.cls-18{fill:#1c8aff;}.cls-19{fill:#69bbff;}.cls-20{fill:#7ab6ff;}.cls-21{fill:#1b8bff;}.cls-22{fill:#1b8cff;}.cls-23{fill:#35dab3;}.cls-24{fill:#edecec;}.cls-25{fill:#acebe2;}.cls-26{fill:#eeeef3;}.cls-27{fill:#34d4ae;}</style><radialGradient id="_ÂÁ_Ï_ÌÌ_È_ËÂÌÚ_242" cx="292.72" cy="196.58" r="48.08" gradientUnits="userSpaceOnUse"><stop offset="0" stop-color="#37bce4"/><stop offset="0.1" stop-color="#32b2de"/><stop offset="0.27" stop-color="#2399ce"/><stop offset="0.45" stop-color="#1077b8"/><stop offset="1" stop-color="#242f5d"/></radialGradient></defs><title>Mesa de trabajo 1</title><path class="cls-1" d="M112.41,385.33c38.84,31.11,88.72,41.75,186.26,22.33C410.52,378.77,446.2,285.78,456,258.9S514.09,154.31,338.9,136C135.15,116,127.57,151.45,103.57,179.24S73.82,354.41,112.41,385.33Z"/><path class="cls-2" d="M319.31,349.63l-.52-.88,15.34-9a6,6,0,0,1,6.14,0L353,347.36l-.53.88-12.68-7.58a5,5,0,0,0-5.09,0Z"/><path class="cls-2" d="M365,347.15l-.52-.89,39.79-23.51a1.24,1.24,0,0,0,0-2.13L391,312.51l.53-.88,13.21,8.11a2.26,2.26,0,0,1,0,3.89Z"/><path class="cls-2" d="M321.62,314.76l-.51-.89,38.78-22.33a1.28,1.28,0,0,0,0-2.22l-20.53-11.79a9.09,9.09,0,0,1-4.55-7.87V202.12a8.43,8.43,0,0,1,3.69-7l3.08-2.1.58.85-3.08,2.1a7.4,7.4,0,0,0-3.24,6.13v67.54a8.06,8.06,0,0,0,4,7l20.52,11.79a2.26,2.26,0,0,1,1.16,2,2.3,2.3,0,0,1-1.15,2Z"/><path class="cls-3" d="M319.05,336.09a1,1,0,0,1-.88-.51,1,1,0,0,1,.36-1.41l15.34-9a6.52,6.52,0,0,1,6.66,0l12.68,7.57a1,1,0,0,1-1.06,1.77L339.48,327a4.51,4.51,0,0,0-4.57,0l-15.34,9A1.07,1.07,0,0,1,319.05,336.09Z"/><path class="cls-2" d="M297.3,384.17l-85.36-49.28c-3-1.71-2.59-4.71.84-6.68h0c3.42-2,8.61-2.2,11.57-.48L309.71,377c3,1.71,2.59,4.7-.83,6.68h0C305.45,385.67,300.27,385.88,297.3,384.17Z"/><path class="cls-4" d="M378.94,253.78a14.73,14.73,0,0,0-2-1h0L373,251.07l.3.68a25.34,25.34,0,0,0-9.19-.09l.18-.76-4.61,2h0a16.27,16.27,0,0,0-1.73.84c-5.78,3.34-5.78,8.76,0,12.1s15.17,3.34,21,0S384.73,257.12,378.94,253.78Z"/><path class="cls-4" d="M373.37,256.94a10.89,10.89,0,0,1-9.82,0c-2.71-1.57-2.71-4.11,0-5.67a10.83,10.83,0,0,1,9.82,0C376.08,252.83,376.08,255.37,373.37,256.94Z"/><path class="cls-5" d="M369,255.17h0a2.36,2.36,0,0,1-2.44-2.28l-1-29.82,4.71-.16,1,29.82A2.35,2.35,0,0,1,369,255.17Z"/><path class="cls-5" d="M369.63,224a3.77,3.77,0,0,1-3.4.11,1,1,0,0,1-.07-2,3.74,3.74,0,0,1,3.4-.12A1,1,0,0,1,369.63,224Z"/><path class="cls-6" d="M368.46,224h0a1.91,1.91,0,0,1-1.91-1.92V194h3.82v28.05A1.91,1.91,0,0,1,368.46,224Z"/><path class="cls-7" d="M396,208.74v-1.1l1.55-.22,1.73-1.3a1.17,1.17,0,0,1,1.15,0l1.28.74,1.27-.19v1.12h0a.44.44,0,0,1-.3.33l-4,1.8a1.26,1.26,0,0,1-1.06,0l-1.35-.78a.41.41,0,0,1-.23-.33Z"/><path class="cls-8" d="M396.14,207.35l3.12-2.34a1.17,1.17,0,0,1,1.15,0l2.33,1.34c.32.19.29.5-.08.67l-4,1.8a1.3,1.3,0,0,1-1.06,0l-1.35-.78C395.92,207.8,395.9,207.53,396.14,207.35Z"/><path class="cls-2" d="M390.88,212.65a2.63,2.63,0,0,0,1.25-.31l4.85-2.8a.57.57,0,0,0,.2-.77.56.56,0,0,0-.76-.2l-4.85,2.8a1.59,1.59,0,0,1-1.38,0l-8.07-4.67a.56.56,0,0,0-.76.2.57.57,0,0,0,.2.77l8.07,4.67A2.57,2.57,0,0,0,390.88,212.65Z"/><polygon class="cls-9" points="344.24 202.38 352.02 197.86 347.66 195.89 343.93 198.53 344.24 202.38"/><path class="cls-8" d="M394.25,195.66a9.92,9.92,0,0,1-1.31-.81l-16.59-12.17c-3-2.19-6.09-2.76-8.47-1.55l-.18.11h0l-22.92,13.3,2.06.68,8,3.64,10.92,7.75,8.62,4.57.39.09c2-1.7,4.26-3.15,5.49-5.62,2.14-3.73,8.08-4.8,11.57-7.83.36.23.71.43,1.06.62A7.76,7.76,0,0,0,394.25,195.66Z"/><path class="cls-7" d="M401.53,190.18a1.51,1.51,0,0,0-.94.33h0l-22.43,13,.82,3.35.84-.4c-1.28,2-3.26,3.32-5,4.83l2.54.53,22-12.78.31-.13a5.23,5.23,0,0,0,.84-.54l0,0h0c1.67-1.29,2.62-3.54,2.62-6.35v-.26A1.54,1.54,0,0,0,401.53,190.18Z"/><path class="cls-10" d="M370.82,180.51a9.29,9.29,0,0,1,4.4,1.43A9.29,9.29,0,0,0,370.82,180.51Z"/><path class="cls-8" d="M381,204.53v-.26a1.54,1.54,0,1,0-3.08,0v.26c0,2.06-.66,3.58-1.8,4.16s-3.25.17-5.25-1.29l-16.6-12.17c-2.55-1.87-5.17-2.54-7.36-2l13.7-8-15.88,9.22,2.06.68,8,3.64,10.92,7.75,8.62,4.57.39.09c2-1.7,4.26-3.15,5.49-5.62a7,7,0,0,1,.76-1Z"/><path class="cls-6" d="M374.38,212.56a10,10,0,0,1-5.78-2.18L352,198.22c-2-1.46-4-1.95-5.26-1.29-1.14.58-1.79,2.09-1.79,4.15a1.55,1.55,0,0,1-3.09,0c0-3.26,1.27-5.78,3.49-6.9,2.38-1.21,5.47-.64,8.47,1.55l16.6,12.17c2,1.46,4,1.94,5.25,1.28,1.14-.57,1.79-2.09,1.79-4.15v-.26a1.55,1.55,0,0,1,3.09,0V205c0,3.27-1.27,5.78-3.49,6.91A6,6,0,0,1,374.38,212.56Z"/><path d="M361.34,239.75s-3.13-1.58-5,.77-4.66,7.89-4.75,11.64,3,3.49,4.78,2.6,7.1-8.56,7.42-10.07a5.24,5.24,0,0,0-.89-3.94C362.35,240.36,361.34,239.75,361.34,239.75Z"/><path class="cls-8" d="M362,239l.14,3.24a1.83,1.83,0,0,1-.91,1.68,3.62,3.62,0,0,1-2.41.38c-2.36-.38-2.57-1.06-2.74-4.29S362,239,362,239Z"/><path d="M349.89,233.52s-3.12-1.57-5,.77-4.67,7.89-4.75,11.64,3,3.49,4.77,2.6S352,240,352.3,238.46a5.21,5.21,0,0,0-.89-3.93C350.9,234.13,349.89,233.52,349.89,233.52Z"/><path class="cls-8" d="M350.58,232.77l.14,3.24a1.83,1.83,0,0,1-.92,1.68,3.59,3.59,0,0,1-2.41.38c-2.35-.38-2.56-1-2.73-4.29S350.58,232.77,350.58,232.77Z"/><path class="cls-11" d="M379.06,173.73c-.6-15.07-16.35,1.87-16.35,1.87L352,185.69l-9.7,10.2a9.37,9.37,0,0,0-2.51,7.46L343,232.62a2.87,2.87,0,0,0,2.83,2.55,9.39,9.39,0,0,0,1.42-.09,3.57,3.57,0,0,0,3.25-3.72l-.12-27.31,20.15-11.58S379.67,188.8,379.06,173.73Z"/><path class="cls-11" d="M389.91,179.05c-.92-15.06-16.3,2.21-16.3,2.21l-10.53,10.32L353.61,202a9.3,9.3,0,0,0-2.36,7.5l3.84,29.2a2.87,2.87,0,0,0,2.87,2.49,9.81,9.81,0,0,0,1.42-.12,3.58,3.58,0,0,0,3.17-3.79l-.7-27.3,19.9-12S390.84,194.1,389.91,179.05Z"/><path class="cls-4" d="M380.81,130.72c11.66,4.83,11.43,11.73,11.43,11.73s-2.28,25.26-1.5,42.14c.32,7-37.48,7.59-31.84-11.23,6.64-22.19,4.15-40.15,7.26-42.86S377.8,129.47,380.81,130.72Z"/><ellipse class="cls-12" cx="378.74" cy="135.33" rx="4.43" ry="6.01" transform="translate(153.21 468.34) rotate(-75.56)"/><path class="cls-13" d="M379.63,140.43a8.7,8.7,0,0,1-2.13-.27,7.75,7.75,0,0,1-4.09-2.51,4.47,4.47,0,0,1-1-4c.69-2.66,4.1-4.08,7.61-3.18a7.73,7.73,0,0,1,4.08,2.5,4.22,4.22,0,0,1-1.78,6.93A7.11,7.11,0,0,1,379.63,140.43Zm-1.78-9.08c-2.16,0-4,1-4.39,2.62a3.37,3.37,0,0,0,.82,3,7.06,7.06,0,0,0,7.59,2,3.39,3.39,0,0,0,2.16-2.22h0a3.37,3.37,0,0,0-.82-3,6.64,6.64,0,0,0-3.5-2.12A7.14,7.14,0,0,0,377.85,131.35Z"/><path class="cls-12" d="M376.14,130.19a29.07,29.07,0,0,1-.1,4.17c-.06,1.16,4,2.24,5,1.19s.63-2.14.89-6.1S376.14,130.19,376.14,130.19Z"/><path class="cls-14" d="M382,129.45s-1,3.67-5.94,5.08l.07-3.34Z"/><path class="cls-12" d="M385.1,120.14a9,9,0,1,1-10.93-6.44A9,9,0,0,1,385.1,120.14Z"/><path class="cls-14" d="M378.48,122.72s-4.94,2.12-8.37,2.14-2.66-2.84-2.66-2.84l10.15-1.47Z"/><path d="M369.09,123.28s4.31-1.83,8.08-1.07a4,4,0,0,1,2.29,1.36,1.31,1.31,0,0,0,.69.5c.67.15,1.76-2.63,3.06-2.69s2.17.86,1.11,2.56-.71,3.62-.22,3.9,5.7-3.72,1.11-12.82-16.27-4.2-18.08-2.35c0,0-1.91,1.66-3.47.18C363.66,112.85,361.92,125.91,369.09,123.28Z"/><path class="cls-12" d="M385.7,160.91v6.82a2.78,2.78,0,0,1-.91,2.06l-14,12.78,1.59,2.44,18.52-13.43a3.78,3.78,0,0,0,1.54-2.65L393.67,157Z"/><path class="cls-4" d="M391.25,139s4.26,6.4,5.84,23.24c0,0-7.27,2.36-11.39,1S391.25,139,391.25,139Z"/><path class="cls-15" d="M384.92,147.12a120.23,120.23,0,0,0-1.76,13.11,2.68,2.68,0,0,0,1.76,2.58h0Z"/><path class="cls-16" d="M381.28,191.45l-3.1-.41-20-11.55a2.8,2.8,0,0,0-2.5.1l-14.18,8.19-1.87-.25v1.87h0a.73.73,0,0,0,.43.65l22.68,13.1a2.77,2.77,0,0,0,2.5-.11l15.44-8.91c.42-.24.63-.55.61-.84h0Z"/><path class="cls-7" d="M366.25,184.15l-1.42-.82H349.2l-7.71,4.45-1.87-.25v1.87h0a.73.73,0,0,0,.43.65l22.68,13.1a2.41,2.41,0,0,0,1.29.24Z"/><path class="cls-8" d="M340.45,187.64l-.83-.11v1.87h0a.73.73,0,0,0,.43.65l.4.23Z"/><path class="cls-17" d="M363,203.25a2.9,2.9,0,0,0,2.12-.13v-3.18H363Z"/><path class="cls-13" d="M362.73,201.28l-22.68-13.09c-.64-.37-.56-1,.18-1.45l15.44-8.91a2.77,2.77,0,0,1,2.5-.1l22.68,13.09c.64.37.56,1-.18,1.44l-15.44,8.92A2.8,2.8,0,0,1,362.73,201.28Z"/><path class="cls-2" d="M362.34,199.3l-18.85-10.89c-.54-.31-.47-.85.15-1.2l8.27-4.65a2.29,2.29,0,0,1,2.08-.09l18.86,10.89c.53.3.47.84-.15,1.2l-8.28,4.65A2.32,2.32,0,0,1,362.34,199.3Z"/><path class="cls-12" d="M356.55,177.4l-.24,1.57a11.5,11.5,0,0,0,.11,4l.27,1.38a2,2,0,0,0,1.56,1.52h0a1.07,1.07,0,0,0,1.25-.93l.38-3.35s.85,1.12,1.27,1.12-.47-3.35-1.4-5.24S356.55,177.4,356.55,177.4Z"/><path class="cls-12" d="M364.24,152.53l-2.44,4.82a9.5,9.5,0,0,0-1,3.65l-1.06,16.48-3.2-.08-1.45-18.5a6.55,6.55,0,0,1,.08-1.71l1.66-9.38Z"/><path class="cls-18" d="M362,202.54l-1.9-2.48-20-11.58a2.79,2.79,0,0,1-1.16-2.22l0-16.37-1.15-1.5,1.08-.63h0a.74.74,0,0,1,.79.05l22.66,13.12a2.78,2.78,0,0,1,1.16,2.22l0,17.83a1,1,0,0,1-.43,1h0Z"/><path class="cls-18" d="M348.13,193.15l-1.42-.82-7.8-13.55v-8.89l-1.15-1.5,1.08-.63h0a.74.74,0,0,1,.79.05l22.66,13.12a2.24,2.24,0,0,1,.85,1Z"/><path class="cls-18" d="M338.28,169.05l-.51-.66,1.08-.63h0a.74.74,0,0,1,.79.05l.4.23Z"/><path class="cls-18" d="M362.5,181.07a2.86,2.86,0,0,1,.95,1.91l-2.21,1.28-1.07-1.84Z"/><path class="cls-18" d="M361.22,181.55l-22.66-13.12c-.64-.37-1.16,0-1.17.88v17.83a2.76,2.76,0,0,0,1.15,2.22l22.67,13.12c.64.37,1.16,0,1.16-.88l0-17.83A2.79,2.79,0,0,0,361.22,181.55Z"/><path class="cls-12" d="M372.36,185l-.36.75a5,5,0,0,1-1.9,2.1l-2.25,1.39a2.23,2.23,0,0,1-2.3.05l-.07,0a1.35,1.35,0,0,1-.19-2.08l2.35-2.42s-1.32,1-1.69.6,1.28-1.75,2.47-1.8a4.75,4.75,0,0,0,2.35-1Z"/><path class="cls-4" d="M366.4,130.46s-8.63,9.38-12.11,18a17.63,17.63,0,0,0,10.17,7.4C371.68,157.93,366.4,130.46,366.4,130.46Z"/><path class="cls-15" d="M362.84,155.29l1.4-13.5-3.3,12.65A17.53,17.53,0,0,0,362.84,155.29Z"/><path class="cls-13" d="M372.85,128.57l-2.31-.64a5.59,5.59,0,0,0,2.72,2.19c1.61.44,1.86-.93,1.86-.93Z"/><path class="cls-19" d="M312.76,123.1,220.79,70c-3-1.74-5.77-1.79-7.85-.48v0L201.4,76.18l7.74,1.44c0,.4,0,.79,0,1.21V295.75c0,8.61,5.24,18.62,11.7,22.35l90.67,52.36c-.82,2.59-2.58,8-2.58,8L320.17,372h0c2.62-1.35,4.29-4.72,4.29-9.58V145.45C324.45,136.83,319.21,126.83,312.76,123.1Z"/><polygon class="cls-2" points="399.2 309.32 385.39 301.34 371.58 309.32 385.39 317.29 399.2 309.32"/><polygon class="cls-20" points="385.39 309.89 385.39 300.91 401.89 291.38 401.89 300.37 385.39 309.89"/><polygon class="cls-5" points="385.39 300.91 368.89 291.38 368.89 300.37 385.39 309.89 385.39 300.91"/><polygon class="cls-4" points="401.89 291.38 385.39 281.85 368.89 291.38 385.39 300.91 401.89 291.38"/><path class="cls-13" d="M344.64,187.62c0,1.41-1,2-2.21,1.28a4.91,4.91,0,0,1-2.22-3.84c0-1.41,1-2,2.22-1.27A4.88,4.88,0,0,1,344.64,187.62Z"/><path class="cls-3" d="M321.37,308.43a1,1,0,0,1-.52-1.92l38.79-22.33a.76.76,0,0,0,.38-.67.75.75,0,0,0-.39-.66l-20.52-11.79a9.61,9.61,0,0,1-4.82-8.31V195.21a9,9,0,0,1,3.92-7.41l3.09-2.09a1,1,0,0,1,1.15,1.7l-3.08,2.09a6.91,6.91,0,0,0-3,5.71v67.54a7.55,7.55,0,0,0,3.78,6.53l20.53,11.79a2.82,2.82,0,0,1,0,4.89l-38.78,22.33A1,1,0,0,1,321.37,308.43Z"/><path class="cls-21" d="M209.09,295.75c0,8.61,5.24,18.62,11.7,22.35l90.67,52.36c-.82,2.59-2.58,8-2.58,8L320.17,372h0c2.62-1.35,4.29-4.72,4.29-9.58V145.45a29,29,0,0,0-3.71-13.52L209.09,196.39Z"/><path class="cls-21" d="M301.15,377.93l-92-53.11c-6.45-3.73-11.69-13.73-11.69-22.35V85.55c0-8.61,5.24-12.57,11.69-8.84l92,53.11c6.46,3.73,11.7,13.74,11.7,22.35V369.09C312.85,377.7,307.61,381.66,301.15,377.93Z"/><path class="cls-13" d="M299.44,370.75l-88.37-51c-4.8-2.77-8.69-10.2-8.69-16.6V89.27c0-6.4,3.89-9.35,8.69-6.57l88.37,51c4.8,2.77,8.69,10.21,8.69,16.61V364.17C308.13,370.58,304.24,373.52,299.44,370.75Z"/><ellipse class="cls-2" cx="186.85" cy="366.77" rx="27.48" ry="15.86"/><path d="M170,358.36a5.24,5.24,0,0,0-3,5.25,8.49,8.49,0,0,0,.43,2.56c.61,1.28,2.6,3,5.79,1.77s10.26-7.9,10.53-12.26C184.3,347.6,175.06,356.21,170,358.36Z"/><path d="M188.71,372.21s-.55,4.69-.13,5.52,2.71,2.56,6,2,12.52-4.24,14.32-10.54c2.8-9.78-18.14,1.58-18.14,1.58Z"/><path class="cls-22" d="M198,297.22l.73,72.76a5.12,5.12,0,0,1-4,5l-.88.11a4.53,4.53,0,0,1-4.33-1.79,5.43,5.43,0,0,1-1-2.94l-.93-31.06L183,311.58l-6.41,49.15a4.26,4.26,0,0,1-1.76,3.24,4.9,4.9,0,0,1-2.93.79,5.4,5.4,0,0,1-3.89-1.91,4,4,0,0,1-.93-2.64l2.55-29.57.94-37.72Z"/><path class="cls-12" d="M188.52,232.1l-1.15,6.62a3,3,0,0,0,2.49,2.89c2.52.63,3.3-1,3.3-1l1.14-7.47Z"/><path class="cls-12" d="M202.44,228.46c-1.79,5.68-7.34,9-12.39,7.37s-7.69-7.53-5.9-13.21,7.34-9,12.39-7.36S204.24,222.78,202.44,228.46Z"/><path class="cls-23" d="M188.82,238.85c-.17-.08-10.71-6.86-14.61.24-6.35,11.58-1.7,24.86-4,53.69-.38,4.83,6.49,7.77,9.74,9.62a19.52,19.52,0,0,0,9.45,2.69c3.3,0,9.61-2.9,9.39-7.21-1.06-19.8.69-36.5,2.31-52.7C201.13,245.18,199.11,243,188.82,238.85Z"/><path class="cls-22" d="M183,311.58l-6.41,49.15a4.26,4.26,0,0,1-1.76,3.24c-.17.11-.36.21-.55.31,1.33-1,5.22-42.26,5.94-46.84S183,311.58,183,311.58Z"/><polygon class="cls-12" points="223 244.85 231.83 227.33 229.06 225.58 219.91 238.92 223 244.85"/><path class="cls-3" d="M201.13,245.18s9.87,3.9,18.35-6.8a1.63,1.63,0,0,1,2.73.18c.76,1.75,1.71,4.4.55,6.89-5.12,11-22.61,10.62-26.82,16.78S201.13,245.18,201.13,245.18Z"/><path class="cls-3" d="M194.69,260c-.86,3.91,4.31,33.42-1.43,44.21,2.87-1.17,5.71-3.44,5.56-6.36a268.81,268.81,0,0,1,1-38.67c4.92-2.49,12.6-4,18-7.95C212,253.41,195.46,256.53,194.69,260Z"/><path class="cls-13" d="M185,237l1.47-1.5s2.41,2.46,4.34,2.89a22.07,22.07,0,0,0,3.46.71l.95,2.6S187.58,241.12,185,237Z"/><path d="M195.57,228.64a1.26,1.26,0,0,0,1-.52c.4-.58.14-3.25,1.38-3.69,1.92-.68,6.5,1.73,7-5.23.25-3.61-1.51-4.57-1.5-6.55,0,0,.15,1-9.15.38S182,220.67,181.76,224.6s1.68,10.4,8,11.29c1,.14,5.48-3.42,5.36-3.88s-1.78-.44-1.54-1.8A1.75,1.75,0,0,1,195.57,228.64Z"/><path class="cls-24" d="M246.6,154l-28.1-16.22a5.42,5.42,0,0,1-2.26-4.32V112.6c0-1.66,1-2.43,2.26-1.71l28.1,16.23a5.4,5.4,0,0,1,2.26,4.32v20.89C248.86,154,247.85,154.76,246.6,154Z"/><path class="cls-15" d="M243.82,120.89l-28.1-16.22a1.47,1.47,0,0,0-1.46-.12h0l-2.73,1.57,1.92.7v20.46a5.4,5.4,0,0,0,2.26,4.32l26.85,15.51v2.4l2.76-1.59h0a2,2,0,0,0,.77-1.8v-20.9A5.44,5.44,0,0,0,243.82,120.89Z"/><path class="cls-25" d="M241,149.42l-28.1-16.23a5.4,5.4,0,0,1-2.26-4.32V108c0-1.67,1-2.43,2.26-1.71L241,122.49a5.42,5.42,0,0,1,2.26,4.32v20.9C243.3,149.37,242.29,150.14,241,149.42Z"/><path class="cls-13" d="M240.83,122l-28.7-15.14a1.33,1.33,0,0,0-1.74.18,1.72,1.72,0,0,1,1,.22l28.69,15.14a5.43,5.43,0,0,1,2.42,4.23l.8,20.88a2.33,2.33,0,0,1-.45,1.61c.74-.09,1.23-.82,1.18-2l-.79-20.88A5.43,5.43,0,0,0,240.83,122Z"/><path class="cls-13" d="M222.39,126c0,1.21-.85,1.7-1.9,1.1a4.22,4.22,0,0,1-1.89-3.29c0-1.21.85-1.7,1.89-1.09A4.17,4.17,0,0,1,222.39,126Z"/><path class="cls-13" d="M228.13,129.31c0,1.21-.84,1.7-1.89,1.09a4.17,4.17,0,0,1-1.9-3.28c0-1.21.85-1.7,1.9-1.1A4.19,4.19,0,0,1,228.13,129.31Z"/><path class="cls-13" d="M233.88,132.62c0,1.21-.85,1.7-1.9,1.1a4.19,4.19,0,0,1-1.89-3.28c0-1.21.84-1.7,1.89-1.1A4.2,4.2,0,0,1,233.88,132.62Z"/><path class="cls-24" d="M299.19,254.94l-81.44-46.45a5.4,5.4,0,0,1-2.26-4.32l-5.33-48.8c0-1.66,1-2.43,2.26-1.7l86.77,48.22a5.42,5.42,0,0,1,2.26,4.32v47C301.45,254.9,300.44,255.66,299.19,254.94Z"/><path class="cls-11" d="M296.41,195.67,215,149.22a1.45,1.45,0,0,0-1.45-.12h0l-2.72,1.57,1.91.7,53.34,76.82a5.43,5.43,0,0,0,2.26,4.32L295.17,248v2.4l2.75-1.58h0a2,2,0,0,0,.76-1.8V200A5.4,5.4,0,0,0,296.41,195.67Z"/><path class="cls-26" d="M293.63,250.32,212.2,203.87a5.4,5.4,0,0,1-2.26-4.32v-47c0-1.67,1-2.43,2.26-1.71l81.43,46.45a5.41,5.41,0,0,1,2.27,4.32v47C295.9,250.27,294.88,251,293.63,250.32Z"/><path class="cls-24" d="M297.41,327.36l-28.1-16.22a5.42,5.42,0,0,1-2.26-4.32v-47c0-1.67,1-2.43,2.26-1.71l28.1,16.22a5.42,5.42,0,0,1,2.26,4.32v47C299.67,327.32,298.66,328.08,297.41,327.36Z"/><path class="cls-3" d="M294.63,268.09l-28.1-16.23a1.43,1.43,0,0,0-1.45-.11v0l-2.72,1.57,1.91.7v46.6a5.43,5.43,0,0,0,2.26,4.32l26.86,15.5v2.4l2.75-1.58h0a2,2,0,0,0,.76-1.8v-47A5.4,5.4,0,0,0,294.63,268.09Z"/><path class="cls-3" d="M291.86,322.74l-28.1-16.22a5.43,5.43,0,0,1-2.26-4.32v-47c0-1.66,1-2.43,2.26-1.71l28.1,16.23a5.4,5.4,0,0,1,2.26,4.32v47C294.12,322.69,293.11,323.46,291.86,322.74Z"/><path class="cls-13" d="M291.86,269.69l-28.1-16.23a1.33,1.33,0,0,0-1.75.12,1.71,1.71,0,0,1,1,.26l28.1,16.22a5.4,5.4,0,0,1,2.26,4.32v47a2.24,2.24,0,0,1-.51,1.59c.75-.06,1.27-.78,1.27-2V274A5.4,5.4,0,0,0,291.86,269.69Z"/><path class="cls-13" d="M281.91,276.06c0,2.61-1.84,3.67-4.1,2.37a9.06,9.06,0,0,1-4.1-7.1c0-2.62,1.83-3.68,4.1-2.37A9.08,9.08,0,0,1,281.91,276.06Z"/><path class="cls-13" d="M283.62,283.45a.5.5,0,0,1,0-.12c-.18-1.1-1.22-2.07-1.91-1.83a4.66,4.66,0,0,1-3.88-.65,12.13,12.13,0,0,1-3.89-3.83c-.69-1-1.73-1.28-1.9-.38a.36.36,0,0,0,0,.1l-1.95,12.35,15.51,9Z"/><polygon class="cls-13" points="286.66 307.44 267.83 296.57 267.83 295.21 286.66 306.08 286.66 307.44"/><polygon class="cls-13" points="280.97 310.08 267.83 302.5 267.83 301.14 280.97 308.73 280.97 310.08"/><polygon class="cls-13" points="279.2 306.1 267.83 299.53 267.83 298.18 279.2 304.74 279.2 306.1"/><polygon class="cls-13" points="286.66 310.4 280.97 307.12 280.97 305.76 286.66 309.04 286.66 310.4"/><polygon class="cls-13" points="229.16 262.9 215.73 255.15 215.73 253.89 229.16 261.64 229.16 262.9"/><polygon class="cls-13" points="237.48 267.7 231.75 264.39 231.75 263.14 237.48 266.45 237.48 267.7"/><polygon class="cls-13" points="229.62 265.89 223.89 262.58 223.89 261.33 229.62 264.64 229.62 265.89"/><polygon class="cls-13" points="242.04 273.06 231.75 267.12 231.75 265.87 242.04 271.81 242.04 273.06"/><polygon class="cls-13" points="249.09 279.86 233.86 271.07 233.86 269.82 249.09 278.61 249.09 279.86"/><polygon class="cls-13" points="245.68 272.44 239.95 269.13 239.95 267.88 245.68 271.19 245.68 272.44"/><polygon class="cls-13" points="221.46 261.19 215.73 257.87 215.73 256.62 221.46 259.93 221.46 261.19"/><polygon class="cls-13" points="231.4 269.65 215.7 260.59 215.7 259.33 231.4 268.4 231.4 269.65"/><polygon class="cls-13" points="225.36 268.89 215.88 263.42 215.88 262.17 225.36 267.64 225.36 268.89"/><path class="cls-27" d="M364.7,335a1.05,1.05,0,0,1-.89-.5,1,1,0,0,1,.36-1.41L404,309.55a.72.72,0,0,0,.36-.62.75.75,0,0,0-.36-.63l-10.86-6.51a1,1,0,0,1-.35-1.41,1,1,0,0,1,1.41-.35L405,306.54a2.77,2.77,0,0,1,1.35,2.4,2.73,2.73,0,0,1-1.37,2.38l-39.79,23.52A1.07,1.07,0,0,1,364.7,335Z"/><polygon class="cls-2" points="372.48 353 358.67 345.02 344.85 353 358.67 360.97 372.48 353"/><polygon class="cls-20" points="358.67 353.57 358.67 344.59 375.17 335.06 375.17 344.05 358.67 353.57"/><polygon class="cls-5" points="358.67 344.59 342.16 335.06 342.16 344.05 358.67 353.57 358.67 344.59"/><polygon class="cls-4" points="375.17 335.06 358.67 325.53 342.16 335.06 358.67 344.59 375.17 335.06"/><path class="cls-12" d="M231.89,227.44l1-2a4.7,4.7,0,0,0,.52-2.27l-.13-4.34-.15-.93a1.71,1.71,0,0,0-1.77-1.45l-.61,0A2.14,2.14,0,0,0,229,217.7l-.55,3.34-1.14-1a.51.51,0,0,0-.74.06h0a.53.53,0,0,0,0,.66l1.62,2,.41,4.24Z"/><path class="cls-23" d="M218.42,180.59c0-1,0-1.81-.08-2.63l1.47.85.1,1.63,0,0c.45-.65,1.51-.92,3-.05a6.78,6.78,0,0,1,3.22,5.93v5.71l-1.66-1v-5.51a4.44,4.44,0,0,0-2.11-4.05c-1.1-.63-1.95-.31-2.23.49a2.2,2.2,0,0,0-.11.75v5.74l-1.66-1Z"/><path class="cls-23" d="M234,196.54l-.14-1.28,0,0c-.51.46-1.49.56-2.8-.19a5.45,5.45,0,0,1-2.79-4.36c0-2.31,2-2.45,5.49-.39v-.2a3.79,3.79,0,0,0-2.07-3.41,4.25,4.25,0,0,0-2.38-.66l-.38-1.37a5.46,5.46,0,0,1,3,.89,6.5,6.5,0,0,1,3.47,5.92V195a14.93,14.93,0,0,0,.16,2.38Zm-.25-5c-1.81-1.09-3.87-1.94-3.87-.08a3.05,3.05,0,0,0,1.57,2.57c1.19.68,1.94.33,2.21-.33a1.54,1.54,0,0,0,.09-.5Z"/><path class="cls-23" d="M238,191.89c0-1,0-1.81-.08-2.64l1.46.84.07,1.59.06,0c.51-.62,1.36-1,2.87-.11A6,6,0,0,1,245,195l0,0a1.7,1.7,0,0,1,1-.66,2.76,2.76,0,0,1,2,.49,6.61,6.61,0,0,1,3,5.9v5.65l-1.62-.94v-5.43a4.42,4.42,0,0,0-2-4.1c-.95-.54-1.68-.24-2,.45a2.47,2.47,0,0,0-.13.8v5.93l-1.62-.94v-5.75a4.21,4.21,0,0,0-1.91-3.74,1.29,1.29,0,0,0-2.06.56,2,2,0,0,0-.13.77v5.79l-1.62-.94Z"/><path class="cls-23" d="M254.67,204a6.08,6.08,0,0,0,3.14,5.14,6.43,6.43,0,0,0,2.53,1l.28,1.42a7.93,7.93,0,0,1-3-1.16,8.8,8.8,0,0,1-4.49-7.45c0-2.9,1.62-4.24,4.28-2.71a7.91,7.91,0,0,1,3.78,6.71,5.91,5.91,0,0,1-.06.79Zm4.87,1.56a4.78,4.78,0,0,0-2.3-4.17c-1.68-1-2.42.23-2.55,1.37Z"/><path class="cls-23" d="M262.59,212.07c0-.74.47-1,1.13-.6a2.29,2.29,0,0,1,1.11,1.9c0,.71-.43,1-1.13.6A2.33,2.33,0,0,1,262.59,212.07Z"/><path class="cls-23" d="M266.89,209c0-1.14,0-2.12-.07-3.05l1.45.84.06,1.92.07,0c.42-1.06,1.42-1.3,2.53-.66a2.83,2.83,0,0,1,.47.34v1.65a3.22,3.22,0,0,0-.56-.39c-1.17-.67-2-.21-2.23,1a4.13,4.13,0,0,0-.07.77v5.13l-1.65-.95Z"/><path class="cls-23" d="M272.84,217.24a8.77,8.77,0,0,0,2.19,2c1.21.7,1.78.39,1.78-.41s-.47-1.57-1.7-2.76c-1.64-1.56-2.42-3-2.42-4.12,0-1.56,1.19-2.14,3.15-1a8.71,8.71,0,0,1,2.25,1.89l-.42,1a6.77,6.77,0,0,0-1.86-1.64c-1-.56-1.53-.28-1.53.43s.55,1.48,1.73,2.64c1.59,1.55,2.4,2.86,2.4,4.3,0,1.69-1.24,2.17-3.41.91a10,10,0,0,1-2.57-2.14Z"/><path class="cls-23" d="M282.19,219.22l0,0c.23-.21.55-.44.81-.63l2.68-1.79,2,1.16-1.78,1c-1,.56-1.1,2.25-.22,4l2.49,5-2-1.17L283,220.3l-.85.51v3.63l-1.64-.95V209.33l1.64.95Z"/></svg>