<svg width="250" height="199" viewBox="0 0 250 199" fill="none" xmlns="http://www.w3.org/2000/svg">
<ellipse cx="125" cy="170" rx="125" ry="28" fill="url(#paint0_linear)"/>
<path d="M202.718 104.895L132.718 187.895C115.118 143.895 125.385 104.562 132.718 90.395C138.551 83.5617 151.618 66.695 157.218 53.895C162.818 41.095 158.885 25.2282 156.218 18.8948C152.218 9.39453 164.418 -7.70522 177.218 3.89478C190.018 15.4948 188.551 40.0614 186.218 50.8948H202.718V104.895Z" fill="#F7BFAF"/>
<path d="M201.5 113.5C201.5 98.8334 199 73.5001 189 89.5001C181.58 101.373 166.03 94.1318 157.5 91.5C154.535 90.5851 152 92.3001 154 95.5001C170 121.1 192.333 118.167 201.5 113.5Z" fill="#F6B498"/>
<rect x="184" y="47" width="47" height="18" rx="9" fill="#FFC9BA"/>
<rect x="187" y="65" width="50" height="18" rx="9" fill="#FFC9BA"/>
<rect x="185" y="83" width="46" height="18" rx="9" fill="#FFC9BA"/>
<rect x="187" y="101" width="34" height="18" rx="9" fill="#FFC9BA"/>
<path d="M151 167L134 187C136 191.5 139 196 140 197.5H145C149 194.7 150.167 175.5 151 167Z" fill="#074578" stroke="#074578"/>
<path d="M159.5 196.5L145.5 197.5C150.7 190.3 151.5 173.5 152 165.5C154.667 162.667 160.8 155 166 149C168 158.6 162.5 184.667 159.5 196.5Z" fill="#2F71A7" stroke="#2F71A7"/>
<path d="M105.5 118.862L47 191.862C93 197.862 100.5 198 140 198C115.6 159.2 123 109.362 133 90.8616C133 90.8616 137 85.0001 145.5 74.0001C120.5 56.9998 109.272 93.8315 105.5 118.862Z" fill="#2F71A7"/>
<path d="M119.5 198C107.5 186.4 104.834 140 105.5 119C103.834 121 53.4 183.6 47 192C64.5 195.5 76.5 196 100.5 197.5C102 197.5 110.7 198 119.5 198Z" fill="#074578"/>
<defs>
<linearGradient id="paint0_linear" x1="13.5" y1="226" x2="250" y2="153" gradientUnits="userSpaceOnUse">
<stop stop-color="#57ADEB"/>
<stop offset="1" stop-color="#1995EF"/>
</linearGradient>
</defs>
</svg>
