<?xml version="1.0" encoding="utf-8"?>
<!-- Generator: Adobe Illustrator 25.0.0, SVG Export Plug-In . SVG Version: 6.00 Build 0)  -->
<svg version="1.1" id="Layer_1" xmlns="http://www.w3.org/2000/svg" xmlns:xlink="http://www.w3.org/1999/xlink" x="0px" y="0px"
	 viewBox="0 0 700 500" style="enable-background:new 0 0 700 500;" xml:space="preserve">
<style type="text/css">
	.st0{fill:#FFFFFF;}
</style>
<path class="st0" d="M361.9,393.5V228.8l33.8-4.2l5.2,25.8c11.1-17.7,27.1-26.6,48.1-26.6c3.6,0,7.2,0.2,10.8,0.6l-0.6,33.6
	c-4.2-0.6-8.5-0.9-12.8-0.9c-14.8,0-25.9,3.9-33.2,11.8s-11,18.8-11,32.9v91.5L361.9,393.5L361.9,393.5z"/>
<path class="st0" d="M323.8,228.3c-1.2-0.7-30.6-16.2-55.4-1.8c-19.9,11.5-23.9,34.6-24.6,44.1l-9.2,5.3c-9.8-9.7-25.5-9.7-35.3-0.1
	l-42.1-24.3c3.3-13.3-4.5-26.8-17.6-30.5v-15c12.3-7.9,51.2-36.5,51.2-82.1c0-52.7-52.3-85.7-54.5-87.1l-3.7-2.3l-3.7,2.3
	c-2.2,1.3-54.6,34.3-54.6,87.1c0,45.6,38.9,74.2,51.2,82.1v15c-13.1,3.8-20.9,17.3-17.7,30.5l-42.1,24.3c-4.7-4.6-11-7.1-17.6-7.1
	c-14,0-25.4,11.4-25.4,25.4c0,11.3,7.5,21.3,18.4,24.4v50.5c-13.5,3.9-21.3,18-17.4,31.5c3.1,10.9,13.1,18.4,24.5,18.4
	c7.2,0,14-3,18.8-8.3l40.9,23.6c-0.5,2-0.8,4-0.8,6.1c0,14,11.4,25.4,25.4,25.4s25.4-11.4,25.4-25.4c0-2.1-0.2-4.1-0.7-6.1
	l40.9-23.6c4.8,5.3,11.6,8.4,18.8,8.3c14,0,25.4-11.3,25.5-25.4c0-11.3-7.5-21.3-18.4-24.5v-50.5c10.9-3.2,18.3-13.1,18.3-24.4
	c0-2-0.2-4-0.7-5.9l9.2-5.3c5.4,2.5,15.9,6.7,28,6.7c8,0.1,15.8-2,22.7-5.9c24.8-14.3,26.1-47.5,26.1-48.9l0.1-4.4L323.8,228.3z
	 M223.8,302.9c-2,1.6-4.5,2.5-7.1,2.5c-1.4,0-2.7-0.2-4-0.7c-1.1-0.4-2.1-1-3-1.7c-2.3-1.8-3.8-4.4-4.2-7.3
	c-0.1-0.5-0.1-1.1-0.1-1.6c0-0.5,0-1,0.1-1.4c0.8-6.2,6.5-10.6,12.8-9.7c5.6,0.7,9.8,5.5,9.8,11.2c0,0.6-0.1,1.3-0.2,1.9
	C227.5,298.6,226,301.1,223.8,302.9 M228.1,393.3c0,6.3-5.1,11.4-11.4,11.4c-2.1,0-4.2-0.6-5.9-1.7c-3.4-2.1-5.4-5.7-5.4-9.7
	c0-0.1,0-0.2,0-0.3l0,0c0-1.2,0.2-2.4,0.7-3.5c0.7-2,2-3.8,3.7-5.1c1.5-1.2,3.2-2,5.1-2.2c0.6-0.1,1.3-0.2,1.9-0.2
	C223,382,228.1,387,228.1,393.3C228.1,393.3,228.1,393.3,228.1,393.3 M209.7,368.9c-3.4,1-6.6,2.7-9.3,5L157.3,349l0,0
	c0.3-1.6,0.5-3.3,0.5-5c0-2.4-0.3-4.8-1-7.1l42.5-24.5c3,2.8,6.6,4.9,10.5,6L209.7,368.9L209.7,368.9z M132.4,451.4
	c-5.6,0-10.4-4.1-11.2-9.6c-0.1-0.6-0.1-1.1-0.1-1.7c0.2-6.3,5.4-11.2,11.7-11c6,0.2,10.8,5,11,11c0,0.6,0,1.1-0.1,1.7
	C142.7,447.3,138,451.4,132.4,451.4 M107.5,349.1l-43.1,24.8c-2.7-2.3-5.9-4-9.3-5v-50.5c4-1.1,7.6-3.3,10.6-6.1l42.3,24.5
	c-0.7,2.3-1,4.8-1,7.2C107,345.7,107.2,347.4,107.5,349.1L107.5,349.1L107.5,349.1z M59.4,393.3c0,3.9-2,7.6-5.4,9.7
	c-1.8,1.1-3.8,1.7-5.9,1.7c-6.3,0.2-11.5-4.7-11.7-11c-0.2-6.3,4.7-11.5,11-11.7c0.2,0,0.4,0,0.7,0c0.7,0,1.3,0.1,2,0.2
	c4,0.7,7.3,3.5,8.7,7.3c0.4,1.1,0.6,2.3,0.7,3.5C59.4,393.1,59.4,393.2,59.4,393.3 M36.7,294c0.2-6.3,5.4-11.2,11.7-11
	c6,0.2,10.8,5,11,11c0,0.5,0,1.1-0.1,1.6c-0.4,2.9-1.9,5.5-4.2,7.3c-0.9,0.7-1.8,1.2-2.8,1.6c-1.3,0.5-2.8,0.8-4.2,0.8
	C41.8,305.4,36.7,300.3,36.7,294C36.7,294,36.7,294,36.7,294 M125.4,236.4c4.9-3.9,12-3.1,15.9,1.9c1.2,1.6,2,3.4,2.3,5.4
	c0.1,0.5,0.1,1.1,0.1,1.7c0,3.5-1.6,6.8-4.3,8.9c-0.9,0.7-1.8,1.2-2.8,1.6c-2.7,1.1-5.7,1.1-8.4,0c-1-0.4-2-0.9-2.8-1.6
	c-2.7-2.1-4.3-5.4-4.3-8.9c0-0.6,0-1.1,0.1-1.7C121.6,240.8,123.1,238.2,125.4,236.4 M143.7,344.4c-0.1,3.3-1.7,6.4-4.3,8.5
	c-0.5,0.4-1.1,0.8-1.6,1.1c-3.3,1.8-7.4,1.8-10.7,0c-0.6-0.3-1.2-0.7-1.7-1.1c-2.6-2.1-4.2-5.2-4.3-8.6c0-0.1,0-0.2,0-0.3
	c0-1,0.1-2,0.4-2.9c0.6-2.4,2-4.5,3.9-6c1.3-1,2.7-1.7,4.2-2.1c0.9-0.2,1.9-0.4,2.8-0.4c1,0,2,0.1,2.9,0.4c3.9,1,6.9,4,8,7.9
	c0.3,1,0.4,2,0.4,3.1C143.8,344,143.8,344.2,143.7,344.4L143.7,344.4L143.7,344.4z M192.1,287.8c-1,4.1-1,8.4,0.1,12.4L149.3,325
	c-2.8-2.5-6.2-4.4-9.9-5.5v-49.8c4-1.1,7.6-3.2,10.6-6.1L192.1,287.8z M88.2,123.8c0-37.4,32.9-64.4,44.2-72.6
	c11.3,8.1,44.2,35.1,44.2,72.6c0,31.3-23.1,53.9-37.1,64.8v-59c0-3.9-3.1-7-7-7c-3.9,0-7,3.1-7,7l0,0v59.1
	C111.4,177.9,88.2,155.2,88.2,123.8 M114.8,263.6c3,2.9,6.6,5,10.6,6.1v49.8c-3.6,1-6.9,2.9-9.8,5.4l-42.9-24.8c1-4,1-8.2,0-12.3
	L114.8,263.6z M73.1,397.8c0.3-1.5,0.4-3,0.4-4.5c0-2.6-0.4-5.2-1.2-7.8l41.8-24.1c3.1,3.3,7,5.6,11.3,6.9v47.3
	c-4,1.2-7.6,3.3-10.6,6.2L73.1,397.8z M150.1,421.9c-3-2.9-6.6-5-10.6-6.2v-47.3c4.3-1.2,8.3-3.6,11.4-6.9l41.8,24.1
	c-0.8,2.5-1.2,5.1-1.2,7.8c0,1.5,0.1,3,0.4,4.5L150.1,421.9z M294.3,271.4c-9.3,5.4-19.9,4.4-27.8,2.3l14.1-8.1
	c3.4-1.9,4.5-6.2,2.6-9.6c-1.9-3.4-6.2-4.5-9.6-2.6l0,0l-14,8.1c2.1-7.9,6.6-17.5,15.9-22.8c13.4-7.8,30-2.8,37.6,0.2
	C311.8,246.9,307.8,263.6,294.3,271.4"/>
<path class="st0" d="M488.8,186.8c0-13.7,7.7-20.6,23-20.6c15.3,0,23,6.9,23,20.6c0,6.6-1.9,11.7-5.7,15.3
	c-3.8,3.6-9.6,5.5-17.2,5.5C496.5,207.6,488.8,200.7,488.8,186.8z M532.8,393.5h-42.2V226.8h42.2V393.5L532.8,393.5z"/>
<path class="st0" d="M662.6,258.5H626v135h-42.2v-135h-23.2v-20.3l23.2-11.3v-11.4c0-17.6,4.3-30.5,13-38.6
	c8.7-8.1,22.5-12.2,41.6-12.2c14.6,0,27.5,2.2,38.9,6.5l-10.8,31c-7.6-2.5-15.5-3.9-23.5-4c-6,0-10.3,1.8-13,5.3
	c-2.7,3.6-4,8.1-4,13.6v9.7h36.5L662.6,258.5L662.6,258.5z"/>
</svg>
